<svg xmlns="http://www.w3.org/2000/svg" xmlns:xlink="http://www.w3.org/1999/xlink" width="500" zoomAndPan="magnify" viewBox="0 0 375 374.999991" height="500" preserveAspectRatio="xMidYMid meet" version="1.0"><defs><g/><clipPath id="1a5b181ab8"><path d="M 165.273438 145.265625 L 216.382812 145.265625 L 216.382812 214.914062 L 165.273438 214.914062 Z M 165.273438 145.265625 " clip-rule="nonzero"/></clipPath></defs><g clip-path="url(#1a5b181ab8)"><path fill="#ffffff" d="M 216.25 161.210938 C 215.300781 159.664062 211.46875 157.207031 208.453125 156.199219 C 205.441406 155.1875 202.367188 154.894531 199.199219 155.347656 C 202.386719 153.292969 205.84375 151.980469 209.828125 151.164062 C 206.679688 150.050781 203.742188 149.664062 200.707031 150.199219 C 197.632812 150.746094 195.019531 152.1875 192.691406 154.613281 C 192.960938 150.78125 191.457031 147.894531 188.914062 145.265625 C 188.902344 145.296875 188.890625 145.332031 188.875 145.363281 C 188.855469 145.335938 188.835938 145.304688 188.816406 145.277344 C 186.859375 148.363281 185.972656 151.496094 187.011719 155.195312 C 184.242188 153.289062 181.390625 152.410156 178.269531 152.496094 C 175.191406 152.582031 172.390625 153.558594 169.535156 155.285156 C 173.601562 155.28125 177.253906 155.867188 180.789062 157.230469 C 177.59375 157.429688 174.640625 158.339844 171.898438 159.9375 C 169.148438 161.539062 165.890625 164.71875 165.277344 166.425781 C 169.207031 164.347656 173.953125 163.234375 177.253906 162.777344 C 177.988281 162.671875 178.648438 162.601562 179.210938 162.558594 C 177.402344 163.597656 175.820312 164.757812 174.492188 166.078125 C 171.683594 168.871094 170.039062 172.363281 169.902344 176.820312 C 173.144531 173.523438 177.046875 171.292969 181.113281 169.238281 C 179.0625 173.453125 178.613281 177.8125 181.324219 182.496094 C 182.035156 177.925781 183.804688 173.800781 186.363281 169.820312 C 186.34375 171.027344 186.546875 173.207031 186.660156 173.269531 C 187.746094 171.863281 188.828125 170.460938 189.933594 169.023438 C 190.085938 168.828125 190.242188 168.632812 190.402344 168.441406 C 191.488281 183.800781 190.449219 199.1875 187.320312 214.203125 L 187.191406 214.808594 L 194.339844 214.808594 L 194.375 214.339844 C 195.535156 198.742188 194.5625 183.101562 191.476562 167.835938 C 191.875 168.125 192.257812 168.429688 192.628906 168.75 C 194.007812 169.929688 195.351562 171.085938 196.695312 172.242188 C 196.796875 172.160156 196.554688 169.984375 196.289062 168.808594 C 196.292969 168.808594 196.292969 168.808594 196.292969 168.808594 C 199.601562 172.1875 202.171875 175.867188 203.792969 180.199219 C 205.5 175.0625 204.175781 170.882812 201.3125 167.171875 C 205.710938 168.363281 209.980469 169.753906 213.828125 172.328125 C 212.789062 167.988281 210.472656 164.902344 207.15625 162.738281 C 205.589844 161.714844 203.804688 160.894531 201.820312 160.246094 C 202.382812 160.171875 203.042969 160.109375 203.78125 160.0625 C 207.109375 159.84375 211.984375 159.96875 216.25 161.210938 " fill-opacity="1" fill-rule="nonzero"/></g><g fill="#ffffff" fill-opacity="1"><g transform="translate(100.985296, 214.875605)"><g><path d="M 16.203125 -37.375 C 18.179688 -37.375 20.117188 -37.082031 22.015625 -36.5 C 23.921875 -35.925781 25.332031 -35.359375 26.25 -34.796875 L 27.59375 -33.90625 L 24.203125 -27.234375 C 23.941406 -27.410156 23.570312 -27.640625 23.09375 -27.921875 C 22.625 -28.203125 21.734375 -28.578125 20.421875 -29.046875 C 19.117188 -29.523438 17.90625 -29.765625 16.78125 -29.765625 C 15.382812 -29.765625 14.304688 -29.46875 13.546875 -28.875 C 12.796875 -28.28125 12.421875 -27.484375 12.421875 -26.484375 C 12.421875 -25.972656 12.597656 -25.503906 12.953125 -25.078125 C 13.304688 -24.648438 13.910156 -24.191406 14.765625 -23.703125 C 15.628906 -23.210938 16.382812 -22.816406 17.03125 -22.515625 C 17.6875 -22.222656 18.695312 -21.78125 20.0625 -21.1875 C 22.4375 -20.175781 24.460938 -18.800781 26.140625 -17.0625 C 27.816406 -15.332031 28.65625 -13.367188 28.65625 -11.171875 C 28.65625 -9.066406 28.273438 -7.226562 27.515625 -5.65625 C 26.765625 -4.082031 25.726562 -2.847656 24.40625 -1.953125 C 23.082031 -1.066406 21.617188 -0.410156 20.015625 0.015625 C 18.421875 0.453125 16.6875 0.671875 14.8125 0.671875 C 13.21875 0.671875 11.644531 0.503906 10.09375 0.171875 C 8.550781 -0.148438 7.257812 -0.554688 6.21875 -1.046875 C 5.1875 -1.535156 4.253906 -2.015625 3.421875 -2.484375 C 2.597656 -2.960938 1.992188 -3.363281 1.609375 -3.6875 L 1.03125 -4.1875 L 5.203125 -11.21875 C 5.554688 -10.914062 6.046875 -10.535156 6.671875 -10.078125 C 7.296875 -9.617188 8.398438 -9.003906 9.984375 -8.234375 C 11.578125 -7.460938 12.984375 -7.078125 14.203125 -7.078125 C 17.722656 -7.078125 19.484375 -8.28125 19.484375 -10.6875 C 19.484375 -11.1875 19.359375 -11.648438 19.109375 -12.078125 C 18.859375 -12.515625 18.414062 -12.945312 17.78125 -13.375 C 17.144531 -13.800781 16.582031 -14.140625 16.09375 -14.390625 C 15.601562 -14.648438 14.800781 -15.035156 13.6875 -15.546875 C 12.570312 -16.066406 11.75 -16.460938 11.21875 -16.734375 C 8.988281 -17.828125 7.265625 -19.195312 6.046875 -20.84375 C 4.835938 -22.488281 4.234375 -24.265625 4.234375 -26.171875 C 4.234375 -29.460938 5.445312 -32.148438 7.875 -34.234375 C 10.3125 -36.328125 13.085938 -37.375 16.203125 -37.375 Z M 16.203125 -37.375 "/></g></g></g><g fill="#ffffff" fill-opacity="1"><g transform="translate(127.27672, 214.875605)"><g><path d="M 4.234375 -2.8125 C 2.097656 -5.144531 1.03125 -8.003906 1.03125 -11.390625 C 1.03125 -14.773438 2.097656 -17.640625 4.234375 -19.984375 C 6.367188 -22.328125 9.082031 -23.5 12.375 -23.5 C 15.394531 -23.5 17.882812 -22.546875 19.84375 -20.640625 L 19.84375 -22.828125 L 27.71875 -22.828125 L 27.71875 0 L 19.9375 0 L 19.9375 -2.578125 L 19.84375 -2.578125 C 17.882812 -0.410156 15.394531 0.671875 12.375 0.671875 C 9.082031 0.671875 6.367188 -0.488281 4.234375 -2.8125 Z M 10.921875 -15.265625 C 9.898438 -14.253906 9.390625 -12.960938 9.390625 -11.390625 C 9.390625 -9.816406 9.878906 -8.53125 10.859375 -7.53125 C 11.835938 -6.539062 13.128906 -6.046875 14.734375 -6.046875 C 16.273438 -6.046875 17.539062 -6.550781 18.53125 -7.5625 C 19.53125 -8.570312 20.03125 -9.847656 20.03125 -11.390625 C 20.03125 -12.960938 19.515625 -14.253906 18.484375 -15.265625 C 17.460938 -16.273438 16.210938 -16.78125 14.734375 -16.78125 C 13.210938 -16.78125 11.941406 -16.273438 10.921875 -15.265625 Z M 10.921875 -15.265625 "/></g></g></g><g fill="#ffffff" fill-opacity="1"><g transform="translate(154.057506, 214.875605)"><g><path d="M 2.671875 0 L 2.671875 -22.828125 L 10.546875 -22.828125 L 10.546875 -20.421875 L 10.640625 -20.421875 C 12.679688 -22.472656 14.859375 -23.5 17.171875 -23.5 C 18.304688 -23.5 19.425781 -23.347656 20.53125 -23.046875 C 21.644531 -22.753906 22.710938 -22.296875 23.734375 -21.671875 C 24.765625 -21.046875 25.597656 -20.160156 26.234375 -19.015625 C 26.867188 -17.878906 27.1875 -16.554688 27.1875 -15.046875 L 27.1875 0 L 19.3125 0 L 19.3125 -12.90625 C 19.3125 -14.09375 18.929688 -15.128906 18.171875 -16.015625 C 17.421875 -16.910156 16.4375 -17.359375 15.21875 -17.359375 C 14.03125 -17.359375 12.953125 -16.894531 11.984375 -15.96875 C 11.023438 -15.050781 10.546875 -14.03125 10.546875 -12.90625 L 10.546875 0 Z M 2.671875 0 "/></g></g></g><g fill="#ffffff" fill-opacity="1"><g transform="translate(179.866775, 214.875605)"><g/></g></g><g fill="#ffffff" fill-opacity="1"><g transform="translate(188.407606, 214.875605)"><g/></g></g><g fill="#ffffff" fill-opacity="1"><g transform="translate(196.951587, 214.875605)"><g><path d="M 2.671875 0 L 2.671875 -22.828125 L 10.546875 -22.828125 L 10.546875 -19.53125 L 10.640625 -19.53125 C 10.691406 -19.65625 10.785156 -19.804688 10.921875 -19.984375 C 11.054688 -20.160156 11.34375 -20.46875 11.78125 -20.90625 C 12.226562 -21.351562 12.703125 -21.753906 13.203125 -22.109375 C 13.710938 -22.472656 14.367188 -22.796875 15.171875 -23.078125 C 15.972656 -23.359375 16.789062 -23.5 17.625 -23.5 C 18.476562 -23.5 19.320312 -23.378906 20.15625 -23.140625 C 20.988281 -22.898438 21.597656 -22.660156 21.984375 -22.421875 L 22.609375 -22.078125 L 19.3125 -15.390625 C 18.332031 -16.222656 16.96875 -16.640625 15.21875 -16.640625 C 14.269531 -16.640625 13.453125 -16.429688 12.765625 -16.015625 C 12.085938 -15.597656 11.609375 -15.09375 11.328125 -14.5 C 11.046875 -13.90625 10.84375 -13.398438 10.71875 -12.984375 C 10.601562 -12.578125 10.546875 -12.253906 10.546875 -12.015625 L 10.546875 0 Z M 2.671875 0 "/></g></g></g><g fill="#ffffff" fill-opacity="1"><g transform="translate(215.502147, 214.875605)"><g><path d="M 3.421875 -35.546875 C 4.347656 -36.472656 5.445312 -36.9375 6.71875 -36.9375 C 8 -36.9375 9.097656 -36.472656 10.015625 -35.546875 C 10.929688 -34.628906 11.390625 -33.53125 11.390625 -32.25 C 11.390625 -30.976562 10.929688 -29.882812 10.015625 -28.96875 C 9.097656 -28.050781 8 -27.59375 6.71875 -27.59375 C 5.445312 -27.59375 4.347656 -28.050781 3.421875 -28.96875 C 2.503906 -29.882812 2.046875 -30.976562 2.046875 -32.25 C 2.046875 -33.53125 2.503906 -34.628906 3.421875 -35.546875 Z M 2.671875 -22.828125 L 2.671875 0 L 10.546875 0 L 10.546875 -22.828125 Z M 2.671875 -22.828125 "/></g></g></g><g fill="#ffffff" fill-opacity="1"><g transform="translate(225.333122, 214.875605)"><g><path d="M 26.171875 -20 C 28.304688 -17.675781 29.375 -14.820312 29.375 -11.4375 C 29.375 -8.050781 28.304688 -5.1875 26.171875 -2.84375 C 24.035156 -0.5 21.316406 0.671875 18.015625 0.671875 C 14.992188 0.671875 12.503906 -0.28125 10.546875 -2.1875 L 10.546875 11.5625 L 2.671875 11.5625 L 2.671875 -22.828125 L 10.453125 -22.828125 L 10.453125 -20.25 L 10.546875 -20.25 C 12.503906 -22.414062 14.992188 -23.5 18.015625 -23.5 C 21.316406 -23.5 24.035156 -22.332031 26.171875 -20 Z M 19.46875 -7.5625 C 20.488281 -8.570312 21 -9.863281 21 -11.4375 C 21 -13.007812 20.507812 -14.289062 19.53125 -15.28125 C 18.550781 -16.28125 17.257812 -16.78125 15.65625 -16.78125 C 14.113281 -16.78125 12.847656 -16.273438 11.859375 -15.265625 C 10.867188 -14.253906 10.375 -12.976562 10.375 -11.4375 C 10.375 -9.863281 10.882812 -8.570312 11.90625 -7.5625 C 12.925781 -6.550781 14.175781 -6.046875 15.65625 -6.046875 C 17.175781 -6.046875 18.445312 -6.550781 19.46875 -7.5625 Z M 19.46875 -7.5625 "/></g></g></g><g fill="#ffffff" fill-opacity="1"><g transform="translate(252.113907, 214.875605)"><g><path d="M 12.59375 -23.5 C 13.894531 -23.5 15.179688 -23.347656 16.453125 -23.046875 C 17.734375 -22.753906 18.6875 -22.457031 19.3125 -22.15625 L 20.25 -21.71875 L 17.671875 -16.546875 C 15.890625 -17.503906 14.195312 -17.984375 12.59375 -17.984375 C 11.707031 -17.984375 11.078125 -17.882812 10.703125 -17.6875 C 10.328125 -17.5 10.140625 -17.132812 10.140625 -16.59375 C 10.140625 -16.476562 10.15625 -16.359375 10.1875 -16.234375 C 10.21875 -16.117188 10.273438 -16.007812 10.359375 -15.90625 C 10.453125 -15.800781 10.535156 -15.710938 10.609375 -15.640625 C 10.679688 -15.566406 10.804688 -15.484375 10.984375 -15.390625 C 11.171875 -15.304688 11.3125 -15.238281 11.40625 -15.1875 C 11.507812 -15.144531 11.679688 -15.078125 11.921875 -14.984375 C 12.160156 -14.898438 12.335938 -14.835938 12.453125 -14.796875 C 12.578125 -14.753906 12.78125 -14.6875 13.0625 -14.59375 C 13.34375 -14.507812 13.554688 -14.453125 13.703125 -14.421875 C 14.617188 -14.148438 15.414062 -13.847656 16.09375 -13.515625 C 16.78125 -13.191406 17.503906 -12.75 18.265625 -12.1875 C 19.023438 -11.625 19.609375 -10.910156 20.015625 -10.046875 C 20.429688 -9.191406 20.640625 -8.21875 20.640625 -7.125 C 20.640625 -1.925781 17.035156 0.671875 9.828125 0.671875 C 8.203125 0.671875 6.65625 0.421875 5.1875 -0.078125 C 3.71875 -0.585938 2.65625 -1.097656 2 -1.609375 L 1.03125 -2.40625 L 4.234375 -7.78125 C 4.460938 -7.570312 4.769531 -7.328125 5.15625 -7.046875 C 5.539062 -6.765625 6.238281 -6.378906 7.25 -5.890625 C 8.257812 -5.398438 9.132812 -5.15625 9.875 -5.15625 C 11.507812 -5.15625 12.328125 -5.707031 12.328125 -6.8125 C 12.328125 -7.3125 12.117188 -7.703125 11.703125 -7.984375 C 11.285156 -8.265625 10.578125 -8.582031 9.578125 -8.9375 C 8.585938 -9.300781 7.8125 -9.628906 7.25 -9.921875 C 5.832031 -10.660156 4.707031 -11.5 3.875 -12.4375 C 3.039062 -13.375 2.625 -14.613281 2.625 -16.15625 C 2.625 -18.46875 3.519531 -20.269531 5.3125 -21.5625 C 7.113281 -22.851562 9.539062 -23.5 12.59375 -23.5 Z M 12.59375 -23.5 "/></g></g></g></svg>