<svg xmlns="http://www.w3.org/2000/svg" xmlns:xlink="http://www.w3.org/1999/xlink" width="500" zoomAndPan="magnify" viewBox="0 0 375 374.999991" height="500" preserveAspectRatio="xMidYMid meet" version="1.0"><defs><g/><clipPath id="fef88b2139"><path d="M 154.230469 103.390625 L 230.597656 103.390625 L 230.597656 207.667969 L 154.230469 207.667969 Z M 154.230469 103.390625 " clip-rule="nonzero"/></clipPath><clipPath id="4d394f26e5"><path d="M 59.753906 55 L 315.296875 55 L 315.296875 320 L 59.753906 320 Z M 59.753906 55 " clip-rule="nonzero"/></clipPath><clipPath id="bb66b9f256"><path d="M 51.101562 109 L 96 109 L 96 120 L 51.101562 120 Z M 51.101562 109 " clip-rule="nonzero"/></clipPath><clipPath id="606ac8aa24"><path d="M 101 130 L 133 130 L 133 137.5625 L 101 137.5625 Z M 101 130 " clip-rule="nonzero"/></clipPath><clipPath id="725e56043f"><path d="M 177 85 L 200.171875 85 L 200.171875 91 L 177 91 Z M 177 85 " clip-rule="nonzero"/></clipPath><clipPath id="34b07c279e"><path d="M 85 248 L 161 248 L 161 312 L 85 312 Z M 85 248 " clip-rule="nonzero"/></clipPath><clipPath id="a2bb89e89d"><path d="M 102.246094 244.617188 L 166.980469 283.734375 L 148.75 313.902344 L 84.015625 274.78125 Z M 102.246094 244.617188 " clip-rule="nonzero"/></clipPath><clipPath id="64091c31d4"><path d="M 167.125 283.820312 L 102.390625 244.703125 L 84.160156 274.867188 L 148.894531 313.988281 Z M 167.125 283.820312 " clip-rule="nonzero"/></clipPath></defs><g clip-path="url(#fef88b2139)"><path fill="#ffffff" d="M 230.539062 127.257812 C 229.121094 124.945312 223.382812 121.269531 218.871094 119.757812 C 214.363281 118.246094 209.757812 117.808594 205.015625 118.484375 C 209.785156 115.410156 214.960938 113.445312 220.921875 112.222656 C 216.210938 110.554688 211.8125 109.976562 207.273438 110.78125 C 202.671875 111.597656 198.757812 113.753906 195.273438 117.386719 C 195.675781 111.648438 193.425781 107.328125 189.621094 103.394531 C 189.601562 103.441406 189.582031 103.492188 189.5625 103.539062 C 189.535156 103.496094 189.503906 103.449219 189.476562 103.40625 C 186.546875 108.03125 185.21875 112.714844 186.773438 118.253906 C 182.625 115.40625 178.355469 114.085938 173.683594 114.21875 C 169.074219 114.347656 164.886719 115.804688 160.609375 118.390625 C 166.695312 118.382812 172.164062 119.257812 177.457031 121.304688 C 172.671875 121.601562 168.253906 122.960938 164.148438 125.355469 C 160.035156 127.75 155.160156 132.511719 154.238281 135.066406 C 160.117188 131.957031 167.226562 130.289062 172.167969 129.601562 C 173.265625 129.449219 174.253906 129.34375 175.097656 129.28125 C 172.390625 130.832031 170.015625 132.574219 168.035156 134.546875 C 163.828125 138.726562 161.367188 143.953125 161.160156 150.625 C 166.015625 145.691406 171.855469 142.355469 177.941406 139.273438 C 174.871094 145.582031 174.199219 152.113281 178.257812 159.125 C 179.320312 152.28125 181.972656 146.105469 185.800781 140.148438 C 185.769531 141.953125 186.074219 145.21875 186.25 145.308594 C 187.867188 143.207031 189.488281 141.105469 191.148438 138.957031 C 191.375 138.660156 191.609375 138.371094 191.851562 138.082031 C 193.46875 161.074219 191.917969 184.109375 187.230469 206.582031 L 187.042969 207.492188 L 197.738281 207.492188 L 197.789062 206.792969 C 199.53125 183.4375 198.070312 160.027344 193.457031 137.179688 C 194.050781 137.609375 194.625 138.066406 195.183594 138.542969 C 197.242188 140.3125 199.253906 142.042969 201.265625 143.773438 C 201.417969 143.648438 201.054688 140.390625 200.660156 138.632812 C 200.664062 138.632812 200.664062 138.632812 200.667969 138.636719 C 205.617188 143.691406 209.464844 149.203125 211.890625 155.683594 C 214.445312 147.996094 212.460938 141.738281 208.179688 136.183594 C 214.765625 137.964844 221.15625 140.050781 226.914062 143.898438 C 225.355469 137.40625 221.890625 132.789062 216.925781 129.546875 C 214.582031 128.011719 211.90625 126.789062 208.941406 125.820312 C 209.78125 125.707031 210.769531 125.609375 211.875 125.539062 C 216.855469 125.214844 224.152344 125.402344 230.539062 127.257812 " fill-opacity="1" fill-rule="nonzero"/></g><g fill="#ffffff" fill-opacity="1"><g transform="translate(58.003953, 207.585827)"><g><path d="M 24.234375 -55.9375 C 27.210938 -55.9375 30.117188 -55.503906 32.953125 -54.640625 C 35.796875 -53.773438 37.910156 -52.921875 39.296875 -52.078125 L 41.28125 -50.75 L 36.234375 -40.75 C 35.828125 -41.019531 35.269531 -41.363281 34.5625 -41.78125 C 33.851562 -42.207031 32.519531 -42.773438 30.5625 -43.484375 C 28.613281 -44.191406 26.796875 -44.546875 25.109375 -44.546875 C 23.015625 -44.546875 21.398438 -44.101562 20.265625 -43.21875 C 19.140625 -42.332031 18.578125 -41.132812 18.578125 -39.625 C 18.578125 -38.863281 18.84375 -38.160156 19.375 -37.515625 C 19.90625 -36.878906 20.816406 -36.191406 22.109375 -35.453125 C 23.398438 -34.722656 24.53125 -34.132812 25.5 -33.6875 C 26.476562 -33.25 27.988281 -32.585938 30.03125 -31.703125 C 33.582031 -30.191406 36.613281 -28.132812 39.125 -25.53125 C 41.632812 -22.9375 42.890625 -20 42.890625 -16.71875 C 42.890625 -13.5625 42.320312 -10.804688 41.1875 -8.453125 C 40.050781 -6.097656 38.492188 -4.253906 36.515625 -2.921875 C 34.546875 -1.597656 32.363281 -0.613281 29.96875 0.03125 C 27.570312 0.675781 24.972656 1 22.171875 1 C 19.773438 1 17.421875 0.753906 15.109375 0.265625 C 12.804688 -0.222656 10.878906 -0.832031 9.328125 -1.5625 C 7.773438 -2.289062 6.375 -3.007812 5.125 -3.71875 C 3.882812 -4.4375 2.972656 -5.039062 2.390625 -5.53125 L 1.53125 -6.265625 L 7.796875 -16.78125 C 8.328125 -16.332031 9.054688 -15.765625 9.984375 -15.078125 C 10.921875 -14.390625 12.578125 -13.46875 14.953125 -12.3125 C 17.328125 -11.164062 19.425781 -10.59375 21.25 -10.59375 C 26.53125 -10.59375 29.171875 -12.390625 29.171875 -15.984375 C 29.171875 -16.734375 28.976562 -17.429688 28.59375 -18.078125 C 28.21875 -18.722656 27.550781 -19.367188 26.59375 -20.015625 C 25.644531 -20.660156 24.800781 -21.171875 24.0625 -21.546875 C 23.332031 -21.921875 22.132812 -22.492188 20.46875 -23.265625 C 18.8125 -24.046875 17.582031 -24.640625 16.78125 -25.046875 C 13.445312 -26.679688 10.867188 -28.726562 9.046875 -31.1875 C 7.234375 -33.65625 6.328125 -36.3125 6.328125 -39.15625 C 6.328125 -44.082031 8.144531 -48.109375 11.78125 -51.234375 C 15.425781 -54.367188 19.578125 -55.9375 24.234375 -55.9375 Z M 24.234375 -55.9375 "/></g></g></g><g fill="#ffffff" fill-opacity="1"><g transform="translate(97.357212, 207.585827)"><g><path d="M 6.328125 -4.21875 C 3.128906 -7.707031 1.53125 -11.984375 1.53125 -17.046875 C 1.53125 -22.109375 3.128906 -26.390625 6.328125 -29.890625 C 9.523438 -33.398438 13.585938 -35.15625 18.515625 -35.15625 C 23.046875 -35.15625 26.773438 -33.738281 29.703125 -30.90625 L 29.703125 -34.15625 L 41.484375 -34.15625 L 41.484375 0 L 29.828125 0 L 29.828125 -3.859375 L 29.703125 -3.859375 C 26.773438 -0.617188 23.046875 1 18.515625 1 C 13.585938 1 9.523438 -0.738281 6.328125 -4.21875 Z M 16.34375 -22.84375 C 14.8125 -21.332031 14.046875 -19.398438 14.046875 -17.046875 C 14.046875 -14.691406 14.78125 -12.769531 16.25 -11.28125 C 17.71875 -9.800781 19.648438 -9.0625 22.046875 -9.0625 C 24.347656 -9.0625 26.242188 -9.8125 27.734375 -11.3125 C 29.222656 -12.820312 29.96875 -14.734375 29.96875 -17.046875 C 29.96875 -19.398438 29.203125 -21.332031 27.671875 -22.84375 C 26.140625 -24.351562 24.265625 -25.109375 22.046875 -25.109375 C 19.773438 -25.109375 17.875 -24.351562 16.34375 -22.84375 Z M 16.34375 -22.84375 "/></g></g></g><g fill="#ffffff" fill-opacity="1"><g transform="translate(137.442952, 207.585827)"><g><path d="M 4 0 L 4 -34.15625 L 15.78125 -34.15625 L 15.78125 -30.5625 L 15.921875 -30.5625 C 18.984375 -33.625 22.242188 -35.15625 25.703125 -35.15625 C 27.390625 -35.15625 29.066406 -34.929688 30.734375 -34.484375 C 32.398438 -34.046875 34 -33.359375 35.53125 -32.421875 C 37.0625 -31.492188 38.300781 -30.175781 39.25 -28.46875 C 40.207031 -26.757812 40.6875 -24.773438 40.6875 -22.515625 L 40.6875 0 L 28.90625 0 L 28.90625 -19.3125 C 28.90625 -21.082031 28.335938 -22.632812 27.203125 -23.96875 C 26.066406 -25.300781 24.59375 -25.96875 22.78125 -25.96875 C 21 -25.96875 19.382812 -25.28125 17.9375 -23.90625 C 16.5 -22.53125 15.78125 -21 15.78125 -19.3125 L 15.78125 0 Z M 4 0 "/></g></g></g><g fill="#ffffff" fill-opacity="1"><g transform="translate(176.074518, 207.585827)"><g/></g></g><g fill="#ffffff" fill-opacity="1"><g transform="translate(188.858517, 207.585827)"><g/></g></g><g fill="#ffffff" fill-opacity="1"><g transform="translate(201.647231, 207.585827)"><g><path d="M 4 0 L 4 -34.15625 L 15.78125 -34.15625 L 15.78125 -29.234375 L 15.921875 -29.234375 C 16.003906 -29.410156 16.144531 -29.628906 16.34375 -29.890625 C 16.539062 -30.160156 16.972656 -30.628906 17.640625 -31.296875 C 18.304688 -31.960938 19.015625 -32.5625 19.765625 -33.09375 C 20.523438 -33.625 21.503906 -34.097656 22.703125 -34.515625 C 23.898438 -34.941406 25.125 -35.15625 26.375 -35.15625 C 27.65625 -35.15625 28.914062 -34.976562 30.15625 -34.625 C 31.40625 -34.269531 32.316406 -33.914062 32.890625 -33.5625 L 33.828125 -33.03125 L 28.90625 -23.046875 C 27.4375 -24.285156 25.394531 -24.90625 22.78125 -24.90625 C 21.351562 -24.90625 20.128906 -24.59375 19.109375 -23.96875 C 18.085938 -23.351562 17.363281 -22.597656 16.9375 -21.703125 C 16.519531 -20.816406 16.222656 -20.0625 16.046875 -19.4375 C 15.867188 -18.820312 15.78125 -18.335938 15.78125 -17.984375 L 15.78125 0 Z M 4 0 "/></g></g></g><g fill="#ffffff" fill-opacity="1"><g transform="translate(229.41389, 207.585827)"><g><path d="M 5.125 -53.203125 C 6.5 -54.578125 8.140625 -55.265625 10.046875 -55.265625 C 11.960938 -55.265625 13.609375 -54.578125 14.984375 -53.203125 C 16.359375 -51.828125 17.046875 -50.1875 17.046875 -48.28125 C 17.046875 -46.375 16.359375 -44.726562 14.984375 -43.34375 C 13.609375 -41.96875 11.960938 -41.28125 10.046875 -41.28125 C 8.140625 -41.28125 6.5 -41.96875 5.125 -43.34375 C 3.75 -44.726562 3.0625 -46.375 3.0625 -48.28125 C 3.0625 -50.1875 3.75 -51.828125 5.125 -53.203125 Z M 4 -34.15625 L 4 0 L 15.78125 0 L 15.78125 -34.15625 Z M 4 -34.15625 "/></g></g></g><g fill="#ffffff" fill-opacity="1"><g transform="translate(244.128989, 207.585827)"><g><path d="M 39.15625 -29.921875 C 42.351562 -26.441406 43.953125 -22.171875 43.953125 -17.109375 C 43.953125 -12.046875 42.351562 -7.757812 39.15625 -4.25 C 35.957031 -0.75 31.894531 1 26.96875 1 C 22.4375 1 18.707031 -0.421875 15.78125 -3.265625 L 15.78125 17.3125 L 4 17.3125 L 4 -34.15625 L 15.65625 -34.15625 L 15.65625 -30.296875 L 15.78125 -30.296875 C 18.707031 -33.535156 22.4375 -35.15625 26.96875 -35.15625 C 31.894531 -35.15625 35.957031 -33.410156 39.15625 -29.921875 Z M 29.140625 -11.3125 C 30.671875 -12.820312 31.4375 -14.753906 31.4375 -17.109375 C 31.4375 -19.460938 30.703125 -21.382812 29.234375 -22.875 C 27.765625 -24.363281 25.832031 -25.109375 23.4375 -25.109375 C 21.132812 -25.109375 19.238281 -24.351562 17.75 -22.84375 C 16.257812 -21.332031 15.515625 -19.421875 15.515625 -17.109375 C 15.515625 -14.753906 16.28125 -12.820312 17.8125 -11.3125 C 19.34375 -9.8125 21.21875 -9.0625 23.4375 -9.0625 C 25.707031 -9.0625 27.609375 -9.8125 29.140625 -11.3125 Z M 29.140625 -11.3125 "/></g></g></g><g fill="#ffffff" fill-opacity="1"><g transform="translate(284.214729, 207.585827)"><g><path d="M 18.84375 -35.15625 C 20.800781 -35.15625 22.734375 -34.929688 24.640625 -34.484375 C 26.546875 -34.046875 27.96875 -33.601562 28.90625 -33.15625 L 30.296875 -32.5 L 26.4375 -24.765625 C 23.769531 -26.191406 21.238281 -26.90625 18.84375 -26.90625 C 17.507812 -26.90625 16.566406 -26.757812 16.015625 -26.46875 C 15.460938 -26.175781 15.1875 -25.632812 15.1875 -24.84375 C 15.1875 -24.664062 15.207031 -24.488281 15.25 -24.3125 C 15.289062 -24.132812 15.378906 -23.96875 15.515625 -23.8125 C 15.648438 -23.65625 15.769531 -23.519531 15.875 -23.40625 C 15.988281 -23.289062 16.175781 -23.164062 16.4375 -23.03125 C 16.707031 -22.90625 16.921875 -22.804688 17.078125 -22.734375 C 17.234375 -22.671875 17.488281 -22.570312 17.84375 -22.4375 C 18.195312 -22.3125 18.460938 -22.210938 18.640625 -22.140625 C 18.816406 -22.078125 19.113281 -21.976562 19.53125 -21.84375 C 19.957031 -21.707031 20.285156 -21.617188 20.515625 -21.578125 C 21.890625 -21.179688 23.085938 -20.738281 24.109375 -20.25 C 25.128906 -19.757812 26.203125 -19.09375 27.328125 -18.25 C 28.460938 -17.40625 29.34375 -16.335938 29.96875 -15.046875 C 30.59375 -13.765625 30.90625 -12.300781 30.90625 -10.65625 C 30.90625 -2.882812 25.507812 1 14.71875 1 C 12.269531 1 9.945312 0.625 7.75 -0.125 C 5.5625 -0.882812 3.976562 -1.640625 3 -2.390625 L 1.53125 -3.59375 L 6.328125 -11.65625 C 6.679688 -11.34375 7.144531 -10.972656 7.71875 -10.546875 C 8.300781 -10.128906 9.347656 -9.550781 10.859375 -8.8125 C 12.367188 -8.082031 13.675781 -7.71875 14.78125 -7.71875 C 17.226562 -7.71875 18.453125 -8.539062 18.453125 -10.1875 C 18.453125 -10.945312 18.140625 -11.535156 17.515625 -11.953125 C 16.890625 -12.378906 15.832031 -12.859375 14.34375 -13.390625 C 12.863281 -13.921875 11.703125 -14.40625 10.859375 -14.84375 C 8.722656 -15.957031 7.03125 -17.210938 5.78125 -18.609375 C 4.539062 -20.003906 3.921875 -21.859375 3.921875 -24.171875 C 3.921875 -27.640625 5.265625 -30.335938 7.953125 -32.265625 C 10.640625 -34.191406 14.269531 -35.15625 18.84375 -35.15625 Z M 18.84375 -35.15625 "/></g></g></g><g clip-path="url(#4d394f26e5)"><path fill="#ffffff" d="M 155.378906 59.664062 C 157.449219 59.144531 159.53125 58.675781 161.625 58.257812 C 163.714844 57.839844 165.816406 57.472656 167.925781 57.15625 C 170.039062 56.84375 172.15625 56.578125 174.277344 56.363281 C 176.402344 56.152344 178.527344 55.988281 180.660156 55.878906 C 182.789062 55.769531 184.921875 55.710938 187.054688 55.707031 C 189.1875 55.699219 191.320312 55.746094 193.453125 55.84375 C 195.585938 55.941406 197.710938 56.089844 199.835938 56.292969 C 201.960938 56.492188 204.078125 56.746094 206.191406 57.046875 C 208.304688 57.351562 210.40625 57.707031 212.5 58.113281 C 214.597656 58.519531 216.679688 58.976562 218.753906 59.484375 C 220.824219 59.992188 222.882812 60.546875 224.929688 61.15625 C 226.976562 61.761719 229.003906 62.417969 231.019531 63.125 C 233.03125 63.832031 235.027344 64.585938 237.003906 65.386719 C 238.980469 66.191406 240.9375 67.042969 242.871094 67.941406 C 244.808594 68.835938 246.722656 69.78125 248.609375 70.773438 C 250.5 71.761719 252.363281 72.800781 254.203125 73.882812 C 256.042969 74.960938 257.855469 76.089844 259.640625 77.257812 C 261.425781 78.425781 263.179688 79.640625 264.90625 80.894531 C 266.632812 82.148438 268.324219 83.445312 269.988281 84.78125 C 271.652344 86.121094 273.28125 87.496094 274.875 88.914062 C 276.472656 90.328125 278.035156 91.78125 279.558594 93.273438 C 281.082031 94.765625 282.570312 96.296875 284.023438 97.859375 C 285.472656 99.425781 286.886719 101.023438 288.257812 102.65625 C 289.632812 104.289062 290.964844 105.953125 292.257812 107.652344 C 293.550781 109.351562 294.800781 111.078125 296.007812 112.835938 C 297.21875 114.59375 298.382812 116.382812 299.503906 118.199219 C 300.625 120.011719 301.703125 121.855469 302.734375 123.722656 C 303.765625 125.589844 304.753906 127.480469 305.691406 129.394531 C 306.632812 131.3125 307.527344 133.25 308.371094 135.207031 C 309.21875 137.167969 310.015625 139.144531 310.765625 141.140625 C 311.515625 143.140625 312.21875 145.15625 312.871094 147.1875 C 313.523438 149.21875 314.125 151.265625 314.675781 153.324219 C 314.882812 154.085938 315.082031 154.859375 315.273438 155.652344 L 313.261719 156.351562 C 313.058594 155.527344 312.847656 154.699219 312.625 153.871094 C 312.078125 151.828125 311.480469 149.800781 310.832031 147.789062 C 310.1875 145.773438 309.492188 143.777344 308.746094 141.796875 C 308.003906 139.820312 307.210938 137.859375 306.371094 135.917969 C 305.53125 133.976562 304.640625 132.058594 303.707031 130.160156 C 302.773438 128.261719 301.792969 126.390625 300.769531 124.542969 C 299.742188 122.691406 298.671875 120.867188 297.554688 119.070312 C 296.441406 117.273438 295.28125 115.507812 294.082031 113.765625 C 292.878906 112.027344 291.636719 110.316406 290.347656 108.636719 C 289.0625 106.957031 287.738281 105.3125 286.371094 103.695312 C 285.003906 102.082031 283.601562 100.503906 282.15625 98.957031 C 280.714844 97.410156 279.234375 95.902344 277.714844 94.429688 C 276.199219 92.957031 274.644531 91.519531 273.058594 90.125 C 271.46875 88.726562 269.851562 87.371094 268.195312 86.050781 C 266.542969 84.734375 264.855469 83.457031 263.140625 82.222656 C 261.421875 80.988281 259.675781 79.796875 257.902344 78.644531 C 256.125 77.496094 254.324219 76.390625 252.496094 75.328125 C 250.667969 74.269531 248.8125 73.25 246.933594 72.28125 C 245.054688 71.3125 243.152344 70.386719 241.230469 69.507812 C 239.304688 68.632812 237.359375 67.800781 235.394531 67.019531 C 233.429688 66.238281 231.449219 65.503906 229.445312 64.816406 C 227.445312 64.132812 225.429688 63.496094 223.398438 62.910156 C 221.367188 62.324219 219.320312 61.789062 217.261719 61.300781 C 215.207031 60.816406 213.136719 60.378906 211.058594 59.992188 C 208.976562 59.609375 206.890625 59.273438 204.792969 58.992188 C 202.699219 58.710938 200.597656 58.476562 198.488281 58.296875 C 196.382812 58.117188 194.273438 57.988281 192.160156 57.914062 C 190.046875 57.835938 187.929688 57.8125 185.816406 57.839844 C 183.703125 57.867188 181.589844 57.945312 179.476562 58.074219 C 177.367188 58.203125 175.261719 58.386719 173.160156 58.621094 C 171.058594 58.855469 168.960938 59.136719 166.875 59.472656 C 164.785156 59.808594 162.707031 60.199219 160.640625 60.636719 C 158.570312 61.074219 156.511719 61.5625 154.46875 62.101562 C 154.789062 61.296875 155.09375 60.492188 155.378906 59.671875 Z M 61.765625 218.921875 C 61.9375 219.597656 62.109375 220.273438 62.289062 220.949219 C 62.839844 223 63.4375 225.03125 64.085938 227.050781 C 64.734375 229.070312 65.433594 231.070312 66.179688 233.054688 C 66.925781 235.039062 67.722656 237.003906 68.566406 238.949219 C 69.40625 240.894531 70.296875 242.816406 71.234375 244.71875 C 72.171875 246.621094 73.15625 248.496094 74.1875 250.351562 C 75.21875 252.203125 76.292969 254.03125 77.410156 255.832031 C 78.53125 257.632812 79.695312 259.402344 80.898438 261.148438 C 82.105469 262.890625 83.355469 264.605469 84.644531 266.285156 C 85.9375 267.96875 87.265625 269.617188 88.636719 271.234375 C 90.007812 272.851562 91.417969 274.433594 92.867188 275.980469 C 94.316406 277.527344 95.804688 279.039062 97.328125 280.515625 C 98.851562 281.988281 100.410156 283.425781 102.003906 284.824219 C 103.597656 286.222656 105.222656 287.582031 106.882812 288.898438 C 108.542969 290.214844 110.234375 291.492188 111.960938 292.730469 C 113.683594 293.964844 115.433594 295.15625 117.214844 296.304688 C 119 297.453125 120.808594 298.558594 122.644531 299.621094 C 124.476562 300.679688 126.339844 301.695312 128.226562 302.664062 C 130.109375 303.632812 132.019531 304.554688 133.949219 305.433594 C 135.878906 306.308594 137.832031 307.136719 139.804688 307.914062 C 141.773438 308.695312 143.765625 309.425781 145.773438 310.105469 C 147.777344 310.789062 149.800781 311.421875 151.839844 312.003906 C 153.878906 312.585938 155.929688 313.121094 157.996094 313.601562 C 160.058594 314.085938 162.136719 314.515625 164.21875 314.894531 C 166.304688 315.277344 168.398438 315.605469 170.503906 315.882812 C 172.605469 316.160156 174.710938 316.386719 176.824219 316.558594 C 178.9375 316.734375 181.054688 316.855469 183.171875 316.925781 C 185.292969 316.996094 187.410156 317.015625 189.53125 316.980469 C 191.652344 316.945312 193.769531 316.859375 195.882812 316.722656 C 198 316.585938 200.109375 316.394531 202.21875 316.15625 C 204.324219 315.914062 206.421875 315.621094 208.515625 315.277344 C 210.605469 314.929688 212.6875 314.535156 214.761719 314.089844 C 216.832031 313.644531 218.894531 313.144531 220.941406 312.597656 C 220.613281 313.402344 220.292969 314.210938 219.996094 315.03125 C 217.921875 315.5625 215.839844 316.039062 213.742188 316.464844 C 211.648438 316.890625 209.542969 317.265625 207.429688 317.589844 C 205.316406 317.914062 203.195312 318.1875 201.066406 318.40625 C 198.941406 318.628906 196.808594 318.796875 194.671875 318.914062 C 192.539062 319.027344 190.402344 319.09375 188.261719 319.105469 C 186.125 319.121094 183.984375 319.078125 181.847656 318.988281 C 179.710938 318.898438 177.578125 318.753906 175.449219 318.558594 C 173.320312 318.363281 171.195312 318.117188 169.078125 317.816406 C 166.960938 317.519531 164.851562 317.167969 162.75 316.765625 C 160.648438 316.367188 158.5625 315.914062 156.480469 315.410156 C 154.402344 314.90625 152.339844 314.355469 150.285156 313.75 C 148.234375 313.144531 146.199219 312.492188 144.179688 311.789062 C 142.160156 311.085938 140.15625 310.335938 138.175781 309.535156 C 136.191406 308.734375 134.230469 307.886719 132.289062 306.988281 C 130.34375 306.09375 128.425781 305.152344 126.53125 304.160156 C 124.632812 303.171875 122.761719 302.136719 120.917969 301.058594 C 119.074219 299.976562 117.253906 298.851562 115.464844 297.683594 C 113.671875 296.511719 111.910156 295.300781 110.179688 294.046875 C 108.449219 292.792969 106.746094 291.496094 105.078125 290.15625 C 103.410156 288.820312 101.773438 287.441406 100.171875 286.023438 C 98.570312 284.609375 97.007812 283.152344 95.476562 281.660156 C 93.945312 280.164062 92.449219 278.636719 90.996094 277.070312 C 89.539062 275.503906 88.121094 273.902344 86.742188 272.265625 C 85.363281 270.632812 84.027344 268.964844 82.730469 267.261719 C 81.433594 265.5625 80.179688 263.832031 78.964844 262.070312 C 77.753906 260.308594 76.585938 258.519531 75.457031 256.699219 C 74.332031 254.882812 73.253906 253.035156 72.21875 251.164062 C 71.179688 249.292969 70.191406 247.398438 69.25 245.480469 C 68.304688 243.558594 67.410156 241.617188 66.558594 239.65625 C 65.710938 237.691406 64.910156 235.710938 64.160156 233.707031 C 63.40625 231.707031 62.703125 229.6875 62.050781 227.652344 C 61.394531 225.613281 60.792969 223.5625 60.238281 221.5 C 60.074219 220.875 59.914062 220.25 59.753906 219.628906 Z M 61.765625 218.921875 " fill-opacity="1" fill-rule="evenodd"/></g><path fill="#ffffff" d="M 76.433594 82.296875 C 86.730469 74.421875 99.035156 75.375 106.953125 85.757812 C 107.21875 86.152344 107.570312 86.441406 108.003906 86.628906 C 108.441406 86.820312 108.894531 86.875 109.363281 86.796875 C 109.894531 86.894531 110.402344 86.832031 110.890625 86.597656 C 111.378906 86.367188 111.75 86.011719 112.003906 85.535156 C 114.773438 80.96875 118.511719 77.230469 123.8125 75.847656 C 125.109375 75.539062 126.425781 75.433594 127.757812 75.539062 C 129.085938 75.644531 130.371094 75.949219 131.605469 76.457031 C 134.082031 77.355469 135.910156 79.722656 138.527344 79.972656 C 138.601562 79.976562 138.671875 79.964844 138.742188 79.933594 C 138.808594 79.902344 138.867188 79.859375 138.914062 79.804688 C 138.960938 79.746094 138.996094 79.679688 139.011719 79.609375 C 139.027344 79.535156 139.027344 79.460938 139.011719 79.390625 C 137.847656 74.089844 127.921875 71.972656 123.398438 71.972656 C 117.679688 72.066406 112.890625 75.292969 109.390625 79.554688 C 99.546875 69.355469 84.988281 70.199219 76.210938 82.101562 C 76.101562 82.242188 76.308594 82.378906 76.433594 82.296875 Z M 76.433594 82.296875 " fill-opacity="1" fill-rule="nonzero"/><path fill="#ffffff" d="M 144.960938 99.75 C 143.894531 99.816406 142.84375 99.996094 141.8125 100.289062 C 140.78125 100.582031 139.796875 100.984375 138.851562 101.496094 C 137.910156 102.007812 137.035156 102.613281 136.226562 103.316406 C 135.417969 104.019531 134.691406 104.800781 134.054688 105.660156 C 126.34375 97.714844 115.050781 98.382812 108.214844 107.640625 C 108.128906 107.75 108.28125 107.863281 108.378906 107.792969 C 116.40625 101.660156 126 102.355469 132.160156 110.480469 C 132.363281 110.789062 132.636719 111.019531 132.980469 111.164062 C 133.320312 111.3125 133.675781 111.355469 134.042969 111.296875 C 134.445312 111.355469 134.828125 111.296875 135.191406 111.117188 C 135.558594 110.9375 135.839844 110.667969 136.035156 110.3125 C 137.003906 108.492188 138.285156 106.925781 139.875 105.617188 C 141.46875 104.308594 143.253906 103.355469 145.226562 102.753906 C 147.304688 102.253906 149.328125 102.417969 151.300781 103.238281 C 153.238281 103.929688 154.652344 105.773438 156.671875 106.007812 C 156.792969 106.011719 156.894531 105.964844 156.972656 105.871094 C 157.046875 105.777344 157.074219 105.667969 157.046875 105.550781 C 156.300781 101.398438 148.492188 99.65625 144.960938 99.75 Z M 144.960938 99.75 " fill-opacity="1" fill-rule="nonzero"/><g clip-path="url(#bb66b9f256)"><path fill="#ffffff" d="M 84.15625 109.566406 C 83.195312 109.621094 82.25 109.785156 81.324219 110.050781 C 80.398438 110.3125 79.511719 110.675781 78.667969 111.136719 C 77.820312 111.59375 77.03125 112.140625 76.304688 112.773438 C 75.578125 113.402344 74.929688 114.105469 74.355469 114.878906 C 67.433594 107.738281 57.277344 108.332031 51.117188 116.664062 C 51.117188 116.761719 51.117188 116.859375 51.269531 116.804688 C 58.492188 111.269531 67.101562 111.917969 72.640625 119.226562 C 72.828125 119.5 73.074219 119.703125 73.378906 119.832031 C 73.683594 119.964844 74 120 74.328125 119.945312 C 74.691406 120.007812 75.039062 119.960938 75.367188 119.800781 C 75.699219 119.640625 75.953125 119.398438 76.128906 119.074219 C 77.003906 117.433594 78.160156 116.023438 79.601562 114.84375 C 81.039062 113.667969 82.652344 112.8125 84.433594 112.277344 C 86.300781 111.832031 88.125 111.976562 89.902344 112.707031 C 91.628906 113.328125 92.902344 114.992188 94.71875 115.171875 C 94.828125 115.171875 94.917969 115.132812 94.988281 115.046875 C 95.0625 114.960938 95.085938 114.863281 95.0625 114.753906 C 94.273438 111.046875 87.324219 109.507812 84.15625 109.566406 Z M 84.15625 109.566406 " fill-opacity="1" fill-rule="nonzero"/></g><g clip-path="url(#606ac8aa24)"><path fill="#ffffff" d="M 124.683594 130.105469 C 123.332031 130.1875 122.0625 130.546875 120.871094 131.191406 C 119.679688 131.835938 118.679688 132.699219 117.875 133.789062 C 113.058594 128.832031 106.011719 129.246094 101.734375 135.035156 C 101.734375 135.035156 101.734375 135.171875 101.847656 135.128906 C 106.855469 131.296875 112.835938 131.726562 116.683594 136.804688 C 116.816406 136.996094 116.984375 137.140625 117.199219 137.230469 C 117.410156 137.324219 117.632812 137.351562 117.859375 137.316406 C 118.113281 137.355469 118.351562 137.320312 118.578125 137.207031 C 118.804688 137.097656 118.980469 136.929688 119.105469 136.707031 C 119.710938 135.570312 120.511719 134.59375 121.507812 133.777344 C 122.503906 132.957031 123.617188 132.363281 124.851562 131.988281 C 126.140625 131.691406 127.394531 131.804688 128.617188 132.320312 C 129.820312 132.75 130.707031 133.914062 131.964844 134.039062 C 132.042969 134.039062 132.105469 134.011719 132.15625 133.949219 C 132.203125 133.890625 132.21875 133.820312 132.199219 133.746094 C 131.714844 131.171875 126.886719 130.105469 124.683594 130.105469 Z M 124.683594 130.105469 " fill-opacity="1" fill-rule="nonzero"/></g><g clip-path="url(#725e56043f)"><path fill="#ffffff" d="M 194.40625 85.535156 C 193.386719 85.597656 192.429688 85.867188 191.53125 86.351562 C 190.632812 86.835938 189.878906 87.488281 189.269531 88.304688 C 189.074219 88.082031 188.867188 87.875 188.648438 87.675781 C 188.429688 87.480469 188.199219 87.296875 187.960938 87.125 C 187.71875 86.957031 187.472656 86.800781 187.210938 86.65625 C 186.953125 86.515625 186.6875 86.390625 186.414062 86.28125 C 186.144531 86.167969 185.863281 86.074219 185.582031 85.996094 C 185.296875 85.917969 185.007812 85.855469 184.71875 85.808594 C 184.425781 85.765625 184.132812 85.738281 183.839844 85.726562 C 183.546875 85.714844 183.253906 85.71875 182.957031 85.742188 C 182.664062 85.765625 182.375 85.804688 182.085938 85.859375 C 181.796875 85.917969 181.511719 85.992188 181.230469 86.082031 C 180.949219 86.167969 180.675781 86.273438 180.40625 86.394531 C 180.136719 86.519531 179.878906 86.652344 179.625 86.804688 C 179.371094 86.957031 179.128906 87.121094 178.894531 87.300781 C 178.664062 87.480469 178.441406 87.675781 178.230469 87.878906 C 178.019531 88.085938 177.820312 88.300781 177.632812 88.53125 C 177.445312 88.757812 177.273438 88.996094 177.117188 89.246094 C 177.117188 89.246094 177.117188 89.34375 177.199219 89.246094 C 180.980469 86.351562 185.503906 86.683594 188.382812 90.503906 C 188.59375 90.816406 188.882812 90.945312 189.253906 90.894531 C 189.445312 90.921875 189.625 90.894531 189.796875 90.8125 C 189.972656 90.730469 190.105469 90.601562 190.195312 90.4375 C 190.652344 89.578125 191.257812 88.84375 192.007812 88.226562 C 192.757812 87.609375 193.601562 87.160156 194.53125 86.878906 C 195.503906 86.640625 196.453125 86.714844 197.382812 87.101562 C 198.292969 87.433594 198.957031 88.289062 199.914062 88.386719 C 199.96875 88.390625 200.015625 88.367188 200.050781 88.324219 C 200.082031 88.28125 200.09375 88.234375 200.078125 88.179688 C 199.691406 86.3125 196.050781 85.507812 194.40625 85.535156 Z M 194.40625 85.535156 " fill-opacity="1" fill-rule="nonzero"/></g><g clip-path="url(#34b07c279e)"><g clip-path="url(#a2bb89e89d)"><g clip-path="url(#64091c31d4)"><path fill="#ffffff" d="M 107.078125 251.535156 L 104.277344 249.839844 C 103.292969 249.246094 102.109375 249.066406 100.992188 249.34375 C 99.875 249.617188 98.914062 250.328125 98.316406 251.3125 L 93.074219 260.015625 L 93.058594 260.007812 L 91.847656 262.011719 L 91.863281 262.023438 L 85.625 272.375 L 97.839844 279.757812 C 97.824219 280.269531 97.878906 280.785156 98 281.289062 C 98.359375 282.738281 99.277344 283.984375 100.550781 284.753906 C 101.824219 285.523438 103.355469 285.757812 104.800781 285.398438 C 105.308594 285.273438 105.789062 285.082031 106.234375 284.828125 L 132.492188 300.699219 C 132.476562 301.207031 132.527344 301.722656 132.652344 302.230469 C 133.007812 303.675781 133.925781 304.921875 135.199219 305.691406 C 136.476562 306.464844 138.003906 306.695312 139.453125 306.339844 C 139.957031 306.214844 140.4375 306.019531 140.882812 305.769531 L 150.332031 311.480469 L 157.292969 299.960938 L 159.882812 287.875 C 160.128906 286.730469 160.011719 285.535156 159.546875 284.464844 C 159.085938 283.390625 158.296875 282.484375 157.296875 281.882812 L 133.820312 267.695312 L 134.097656 263.847656 L 108.855469 248.59375 Z M 140.910156 302.578125 C 141.359375 301.832031 141.492188 300.941406 141.285156 300.097656 C 141.078125 299.257812 140.542969 298.53125 139.800781 298.082031 C 139.058594 297.632812 138.164062 297.496094 137.324219 297.707031 C 136.480469 297.914062 135.753906 298.445312 135.304688 299.191406 C 134.855469 299.933594 134.722656 300.824219 134.929688 301.667969 C 135.136719 302.511719 135.671875 303.238281 136.414062 303.6875 C 137.15625 304.136719 138.046875 304.269531 138.890625 304.0625 C 139.734375 303.855469 140.460938 303.320312 140.910156 302.578125 Z M 106.257812 281.636719 C 106.707031 280.894531 106.84375 280.003906 106.636719 279.160156 C 106.425781 278.316406 105.890625 277.59375 105.148438 277.144531 C 104.40625 276.695312 103.515625 276.558594 102.671875 276.765625 C 101.828125 276.972656 101.105469 277.507812 100.65625 278.25 C 100.207031 278.996094 100.070312 279.886719 100.277344 280.726562 C 100.484375 281.570312 101.019531 282.296875 101.761719 282.746094 C 102.503906 283.195312 103.398438 283.332031 104.242188 283.121094 C 105.082031 282.914062 105.808594 282.382812 106.257812 281.636719 Z M 93.867188 263.234375 L 88.839844 271.578125 L 98.453125 277.390625 C 98.515625 277.269531 98.578125 277.152344 98.648438 277.039062 C 99.417969 275.765625 100.664062 274.847656 102.113281 274.492188 C 103.558594 274.132812 105.085938 274.367188 106.363281 275.136719 C 107.636719 275.90625 108.554688 277.152344 108.910156 278.601562 C 109.269531 280.046875 109.035156 281.574219 108.265625 282.851562 C 108.195312 282.964844 108.125 283.078125 108.046875 283.1875 L 133.105469 298.328125 C 133.164062 298.210938 133.230469 298.09375 133.300781 297.976562 C 134.070312 296.703125 135.316406 295.785156 136.761719 295.429688 C 138.207031 295.074219 139.738281 295.304688 141.011719 296.074219 C 141.414062 296.316406 141.78125 296.609375 142.105469 296.9375 L 144.121094 293.601562 Z M 149.539062 308.261719 L 154.578125 299.921875 L 144.789062 294.007812 L 142.640625 297.566406 C 143.070312 298.152344 143.386719 298.820312 143.5625 299.539062 C 143.917969 300.984375 143.6875 302.515625 142.914062 303.789062 C 142.847656 303.90625 142.773438 304.015625 142.695312 304.125 Z M 148.539062 297.191406 L 145.324219 295.246094 L 144.921875 295.917969 L 148.136719 297.859375 Z M 95.078125 261.226562 L 145.332031 291.597656 L 151.621094 281.191406 L 103.066406 251.847656 C 102.613281 251.574219 102.066406 251.492188 101.554688 251.621094 C 101.039062 251.746094 100.597656 252.070312 100.324219 252.523438 Z M 152.292969 281.597656 L 146.003906 292 L 155.386719 297.671875 L 157.59375 287.382812 C 157.734375 286.714844 157.664062 286.019531 157.398438 285.394531 C 157.125 284.765625 156.664062 284.238281 156.082031 283.886719 Z M 109.082031 252.746094 L 131.570312 266.332031 L 131.65625 265.109375 L 109.648438 251.808594 L 109.082031 252.746094 " fill-opacity="1" fill-rule="evenodd"/></g></g></g></svg>