<svg xmlns="http://www.w3.org/2000/svg" xmlns:xlink="http://www.w3.org/1999/xlink" width="500" zoomAndPan="magnify" viewBox="0 0 375 374.999991" height="500" preserveAspectRatio="xMidYMid meet" version="1.0"><defs><g/><clipPath id="c0e259f3bb"><path d="M 136.652344 101.59375 L 240.609375 101.59375 L 240.609375 243.261719 L 136.652344 243.261719 Z M 136.652344 101.59375 " clip-rule="nonzero"/></clipPath></defs><g clip-path="url(#c0e259f3bb)"><path fill="#ffffff" d="M 240.339844 134.023438 C 238.414062 130.878906 230.617188 125.886719 224.484375 123.832031 C 218.359375 121.773438 212.105469 121.183594 205.660156 122.097656 C 212.140625 117.925781 219.175781 115.253906 227.277344 113.589844 C 220.875 111.324219 214.898438 110.539062 208.730469 111.632812 C 202.476562 112.742188 197.160156 115.671875 192.421875 120.609375 C 192.96875 112.808594 189.910156 106.941406 184.742188 101.59375 C 184.714844 101.660156 184.6875 101.726562 184.664062 101.792969 C 184.621094 101.734375 184.582031 101.671875 184.542969 101.613281 C 180.5625 107.894531 178.757812 114.261719 180.875 121.789062 C 175.234375 117.917969 169.433594 116.125 163.085938 116.304688 C 156.824219 116.480469 151.128906 118.460938 145.320312 121.976562 C 153.589844 121.964844 161.019531 123.15625 168.210938 125.929688 C 161.710938 126.335938 155.707031 128.1875 150.125 131.4375 C 144.535156 134.695312 137.914062 141.160156 136.664062 144.632812 C 144.652344 140.40625 154.308594 138.144531 161.027344 137.210938 C 162.515625 137 163.855469 136.855469 165.007812 136.773438 C 161.324219 138.878906 158.101562 141.246094 155.40625 143.929688 C 149.691406 149.609375 146.347656 156.710938 146.066406 165.777344 C 152.667969 159.070312 160.597656 154.539062 168.867188 150.351562 C 164.699219 158.925781 163.785156 167.796875 169.300781 177.324219 C 170.742188 168.027344 174.347656 159.636719 179.546875 151.542969 C 179.511719 153.992188 179.921875 158.429688 180.15625 158.554688 C 182.359375 155.695312 184.5625 152.839844 186.816406 149.921875 C 187.125 149.515625 187.441406 149.121094 187.769531 148.734375 C 189.972656 179.976562 187.863281 211.277344 181.496094 241.8125 L 181.238281 243.046875 L 195.773438 243.046875 L 195.84375 242.097656 C 198.207031 210.363281 196.226562 178.550781 189.953125 147.503906 C 190.761719 148.089844 191.542969 148.710938 192.300781 149.359375 C 195.097656 151.761719 197.832031 154.113281 200.566406 156.464844 C 200.773438 156.296875 200.277344 151.871094 199.742188 149.476562 C 199.746094 149.480469 199.75 149.480469 199.75 149.484375 C 206.480469 156.355469 211.703125 163.839844 215 172.648438 C 218.472656 162.203125 215.78125 153.699219 209.960938 146.148438 C 218.90625 148.570312 227.59375 151.40625 235.414062 156.636719 C 233.300781 147.816406 228.59375 141.539062 221.84375 137.132812 C 218.660156 135.050781 215.023438 133.386719 210.992188 132.066406 C 212.136719 131.917969 213.480469 131.785156 214.980469 131.691406 C 221.746094 131.246094 231.664062 131.503906 240.339844 134.023438 " fill-opacity="1" fill-rule="nonzero"/></g><g fill="#ffffff" fill-opacity="1"><g transform="translate(5.889566, 243.182719)"><g><path d="M 32.9375 -76.015625 C 36.976562 -76.015625 40.929688 -75.425781 44.796875 -74.25 C 48.660156 -73.070312 51.523438 -71.910156 53.390625 -70.765625 L 56.109375 -68.96875 L 49.234375 -55.390625 C 48.691406 -55.742188 47.9375 -56.207031 46.96875 -56.78125 C 46 -57.363281 44.1875 -58.132812 41.53125 -59.09375 C 38.882812 -60.0625 36.414062 -60.546875 34.125 -60.546875 C 31.28125 -60.546875 29.085938 -59.941406 27.546875 -58.734375 C 26.015625 -57.523438 25.25 -55.894531 25.25 -53.84375 C 25.25 -52.820312 25.609375 -51.875 26.328125 -51 C 27.054688 -50.125 28.296875 -49.1875 30.046875 -48.1875 C 31.796875 -47.195312 33.332031 -46.398438 34.65625 -45.796875 C 35.988281 -45.191406 38.039062 -44.285156 40.8125 -43.078125 C 45.644531 -41.023438 49.765625 -38.234375 53.171875 -34.703125 C 56.578125 -31.171875 58.28125 -27.175781 58.28125 -22.71875 C 58.28125 -18.4375 57.507812 -14.695312 55.96875 -11.5 C 54.4375 -8.300781 52.328125 -5.796875 49.640625 -3.984375 C 46.953125 -2.171875 43.976562 -0.828125 40.71875 0.046875 C 37.46875 0.921875 33.941406 1.359375 30.140625 1.359375 C 26.878906 1.359375 23.679688 1.023438 20.546875 0.359375 C 17.410156 -0.304688 14.785156 -1.132812 12.671875 -2.125 C 10.554688 -3.125 8.65625 -4.101562 6.96875 -5.0625 C 5.28125 -6.03125 4.046875 -6.847656 3.265625 -7.515625 L 2.078125 -8.5 L 10.59375 -22.8125 C 11.3125 -22.207031 12.300781 -21.4375 13.5625 -20.5 C 14.832031 -19.5625 17.082031 -18.304688 20.3125 -16.734375 C 23.539062 -15.171875 26.394531 -14.390625 28.875 -14.390625 C 36.050781 -14.390625 39.640625 -16.832031 39.640625 -21.71875 C 39.640625 -22.75 39.378906 -23.703125 38.859375 -24.578125 C 38.347656 -25.453125 37.441406 -26.320312 36.140625 -27.1875 C 34.847656 -28.0625 33.703125 -28.753906 32.703125 -29.265625 C 31.710938 -29.785156 30.085938 -30.570312 27.828125 -31.625 C 25.566406 -32.6875 23.894531 -33.488281 22.8125 -34.03125 C 18.28125 -36.257812 14.773438 -39.046875 12.296875 -42.390625 C 9.828125 -45.742188 8.59375 -49.351562 8.59375 -53.21875 C 8.59375 -59.914062 11.066406 -65.390625 16.015625 -69.640625 C 20.960938 -73.890625 26.601562 -76.015625 32.9375 -76.015625 Z M 32.9375 -76.015625 "/></g></g></g><g fill="#ffffff" fill-opacity="1"><g transform="translate(59.367037, 243.182719)"><g><path d="M 8.59375 -5.734375 C 4.25 -10.472656 2.078125 -16.28125 2.078125 -23.15625 C 2.078125 -30.039062 4.25 -35.863281 8.59375 -40.625 C 12.9375 -45.394531 18.457031 -47.78125 25.15625 -47.78125 C 31.3125 -47.78125 36.378906 -45.847656 40.359375 -41.984375 L 40.359375 -46.421875 L 56.375 -46.421875 L 56.375 0 L 40.546875 0 L 40.546875 -5.25 L 40.359375 -5.25 C 36.378906 -0.84375 31.3125 1.359375 25.15625 1.359375 C 18.457031 1.359375 12.9375 -1.003906 8.59375 -5.734375 Z M 22.21875 -31.046875 C 20.132812 -28.992188 19.09375 -26.367188 19.09375 -23.171875 C 19.09375 -19.972656 20.085938 -17.363281 22.078125 -15.34375 C 24.066406 -13.320312 26.691406 -12.3125 29.953125 -12.3125 C 33.085938 -12.3125 35.664062 -13.335938 37.6875 -15.390625 C 39.707031 -17.441406 40.71875 -20.035156 40.71875 -23.171875 C 40.71875 -26.367188 39.675781 -28.992188 37.59375 -31.046875 C 35.519531 -33.097656 32.972656 -34.125 29.953125 -34.125 C 26.878906 -34.125 24.300781 -33.097656 22.21875 -31.046875 Z M 22.21875 -31.046875 "/></g></g></g><g fill="#ffffff" fill-opacity="1"><g transform="translate(113.839882, 243.182719)"><g><path d="M 5.4375 0 L 5.4375 -46.421875 L 21.453125 -46.421875 L 21.453125 -41.546875 L 21.625 -41.546875 C 25.789062 -45.703125 30.226562 -47.78125 34.9375 -47.78125 C 37.226562 -47.78125 39.503906 -47.476562 41.765625 -46.875 C 44.023438 -46.269531 46.195312 -45.332031 48.28125 -44.0625 C 50.363281 -42.800781 52.050781 -41.007812 53.34375 -38.6875 C 54.644531 -36.363281 55.296875 -33.664062 55.296875 -30.59375 L 55.296875 0 L 39.28125 0 L 39.28125 -26.25 C 39.28125 -28.65625 38.507812 -30.765625 36.96875 -32.578125 C 35.425781 -34.390625 33.421875 -35.296875 30.953125 -35.296875 C 28.535156 -35.296875 26.347656 -34.359375 24.390625 -32.484375 C 22.429688 -30.617188 21.453125 -28.539062 21.453125 -26.25 L 21.453125 0 Z M 5.4375 0 "/></g></g></g><g fill="#ffffff" fill-opacity="1"><g transform="translate(166.336637, 243.182719)"><g/></g></g><g fill="#ffffff" fill-opacity="1"><g transform="translate(183.70892, 243.182719)"><g/></g></g><g fill="#ffffff" fill-opacity="1"><g transform="translate(201.087609, 243.182719)"><g><path d="M 5.4375 0 L 5.4375 -46.421875 L 21.453125 -46.421875 L 21.453125 -39.734375 L 21.625 -39.734375 C 21.75 -39.972656 21.945312 -40.269531 22.21875 -40.625 C 22.488281 -40.988281 23.078125 -41.625 23.984375 -42.53125 C 24.890625 -43.4375 25.851562 -44.25 26.875 -44.96875 C 27.90625 -45.695312 29.234375 -46.347656 30.859375 -46.921875 C 32.484375 -47.492188 34.144531 -47.78125 35.84375 -47.78125 C 37.59375 -47.78125 39.3125 -47.539062 41 -47.0625 C 42.6875 -46.582031 43.921875 -46.097656 44.703125 -45.609375 L 45.96875 -44.890625 L 39.28125 -31.3125 C 37.289062 -33 34.515625 -33.84375 30.953125 -33.84375 C 29.023438 -33.84375 27.363281 -33.421875 25.96875 -32.578125 C 24.582031 -31.734375 23.601562 -30.707031 23.03125 -29.5 C 22.457031 -28.289062 22.050781 -27.265625 21.8125 -26.421875 C 21.570312 -25.578125 21.453125 -24.914062 21.453125 -24.4375 L 21.453125 0 Z M 5.4375 0 "/></g></g></g><g fill="#ffffff" fill-opacity="1"><g transform="translate(238.819953, 243.182719)"><g><path d="M 6.96875 -72.296875 C 8.84375 -74.171875 11.078125 -75.109375 13.671875 -75.109375 C 16.265625 -75.109375 18.492188 -74.171875 20.359375 -72.296875 C 22.234375 -70.429688 23.171875 -68.203125 23.171875 -65.609375 C 23.171875 -63.015625 22.234375 -60.78125 20.359375 -58.90625 C 18.492188 -57.039062 16.265625 -56.109375 13.671875 -56.109375 C 11.078125 -56.109375 8.84375 -57.039062 6.96875 -58.90625 C 5.09375 -60.78125 4.15625 -63.015625 4.15625 -65.609375 C 4.15625 -68.203125 5.09375 -70.429688 6.96875 -72.296875 Z M 5.4375 -46.421875 L 5.4375 0 L 21.453125 0 L 21.453125 -46.421875 Z M 5.4375 -46.421875 "/></g></g></g><g fill="#ffffff" fill-opacity="1"><g transform="translate(258.816423, 243.182719)"><g><path d="M 53.21875 -40.671875 C 57.5625 -35.941406 59.734375 -30.132812 59.734375 -23.25 C 59.734375 -16.375 57.5625 -10.550781 53.21875 -5.78125 C 48.875 -1.019531 43.351562 1.359375 36.65625 1.359375 C 30.5 1.359375 25.429688 -0.570312 21.453125 -4.4375 L 21.453125 23.53125 L 5.4375 23.53125 L 5.4375 -46.421875 L 21.265625 -46.421875 L 21.265625 -41.171875 L 21.453125 -41.171875 C 25.429688 -45.578125 30.5 -47.78125 36.65625 -47.78125 C 43.351562 -47.78125 48.875 -45.410156 53.21875 -40.671875 Z M 39.59375 -15.390625 C 41.675781 -17.441406 42.71875 -20.066406 42.71875 -23.265625 C 42.71875 -26.460938 41.722656 -29.070312 39.734375 -31.09375 C 37.742188 -33.113281 35.117188 -34.125 31.859375 -34.125 C 28.722656 -34.125 26.144531 -33.097656 24.125 -31.046875 C 22.101562 -28.992188 21.09375 -26.398438 21.09375 -23.265625 C 21.09375 -20.066406 22.128906 -17.441406 24.203125 -15.390625 C 26.285156 -13.335938 28.835938 -12.3125 31.859375 -12.3125 C 34.929688 -12.3125 37.507812 -13.335938 39.59375 -15.390625 Z M 39.59375 -15.390625 "/></g></g></g><g fill="#ffffff" fill-opacity="1"><g transform="translate(313.289268, 243.182719)"><g><path d="M 25.609375 -47.78125 C 28.265625 -47.78125 30.890625 -47.476562 33.484375 -46.875 C 36.078125 -46.269531 38.007812 -45.664062 39.28125 -45.0625 L 41.171875 -44.15625 L 35.921875 -33.671875 C 32.304688 -35.597656 28.867188 -36.5625 25.609375 -36.5625 C 23.796875 -36.5625 22.515625 -36.363281 21.765625 -35.96875 C 21.015625 -35.582031 20.640625 -34.84375 20.640625 -33.75 C 20.640625 -33.507812 20.664062 -33.269531 20.71875 -33.03125 C 20.78125 -32.789062 20.898438 -32.5625 21.078125 -32.34375 C 21.265625 -32.132812 21.429688 -31.953125 21.578125 -31.796875 C 21.734375 -31.648438 21.988281 -31.488281 22.34375 -31.3125 C 22.707031 -31.132812 22.992188 -31 23.203125 -30.90625 C 23.421875 -30.8125 23.769531 -30.675781 24.25 -30.5 C 24.738281 -30.320312 25.101562 -30.1875 25.34375 -30.09375 C 25.582031 -30 25.988281 -29.859375 26.5625 -29.671875 C 27.132812 -29.492188 27.570312 -29.378906 27.875 -29.328125 C 29.738281 -28.773438 31.363281 -28.164062 32.75 -27.5 C 34.144531 -26.84375 35.609375 -25.941406 37.140625 -24.796875 C 38.679688 -23.648438 39.875 -22.203125 40.71875 -20.453125 C 41.5625 -18.703125 41.984375 -16.710938 41.984375 -14.484375 C 41.984375 -3.921875 34.65625 1.359375 20 1.359375 C 16.675781 1.359375 13.519531 0.847656 10.53125 -0.171875 C 7.550781 -1.203125 5.398438 -2.234375 4.078125 -3.265625 L 2.078125 -4.890625 L 8.59375 -15.84375 C 9.082031 -15.414062 9.71875 -14.914062 10.5 -14.34375 C 11.28125 -13.769531 12.695312 -12.984375 14.75 -11.984375 C 16.800781 -10.992188 18.582031 -10.5 20.09375 -10.5 C 23.40625 -10.5 25.0625 -11.613281 25.0625 -13.84375 C 25.0625 -14.875 24.640625 -15.675781 23.796875 -16.25 C 22.953125 -16.820312 21.519531 -17.46875 19.5 -18.1875 C 17.476562 -18.914062 15.894531 -19.582031 14.75 -20.1875 C 11.851562 -21.6875 9.5625 -23.382812 7.875 -25.28125 C 6.1875 -27.1875 5.34375 -29.707031 5.34375 -32.84375 C 5.34375 -37.550781 7.164062 -41.21875 10.8125 -43.84375 C 14.46875 -46.46875 19.398438 -47.78125 25.609375 -47.78125 Z M 25.609375 -47.78125 "/></g></g></g></svg>