<svg xmlns="http://www.w3.org/2000/svg" xmlns:xlink="http://www.w3.org/1999/xlink" width="500" zoomAndPan="magnify" viewBox="0 0 375 374.999991" height="500" preserveAspectRatio="xMidYMid meet" version="1.0"><defs><g/><clipPath id="4022a42558"><path d="M 59.753906 55 L 315.503906 55 L 315.503906 320 L 59.753906 320 Z M 59.753906 55 " clip-rule="nonzero"/></clipPath><clipPath id="8789c4390c"><path d="M 154.230469 103.394531 L 230.730469 103.394531 L 230.730469 207.644531 L 154.230469 207.644531 Z M 154.230469 103.394531 " clip-rule="nonzero"/></clipPath><clipPath id="c6048c0620"><path d="M 51.101562 109 L 96 109 L 96 120 L 51.101562 120 Z M 51.101562 109 " clip-rule="nonzero"/></clipPath><clipPath id="668a093f2b"><path d="M 101 130 L 133 130 L 133 137.519531 L 101 137.519531 Z M 101 130 " clip-rule="nonzero"/></clipPath><clipPath id="fe35d6df14"><path d="M 177 85 L 200.351562 85 L 200.351562 91 L 177 91 Z M 177 85 " clip-rule="nonzero"/></clipPath><clipPath id="6e004aa5ca"><path d="M 85 248 L 161 248 L 161 312 L 85 312 Z M 85 248 " clip-rule="nonzero"/></clipPath><clipPath id="4020278158"><path d="M 102.246094 244.617188 L 167.078125 283.796875 L 148.847656 313.964844 L 84.015625 274.785156 Z M 102.246094 244.617188 " clip-rule="nonzero"/></clipPath><clipPath id="ce2d0c6a07"><path d="M 167.121094 283.820312 L 102.289062 244.640625 L 84.054688 274.808594 L 148.886719 313.988281 Z M 167.121094 283.820312 " clip-rule="nonzero"/></clipPath><clipPath id="3faa05986c"><path d="M 167.121094 283.820312 L 102.289062 244.640625 L 84.054688 274.808594 L 148.886719 313.988281 Z M 167.121094 283.820312 " clip-rule="nonzero"/></clipPath></defs><g clip-path="url(#4022a42558)"><path fill="#000000" d="M 155.378906 59.664062 C 157.449219 59.148438 159.53125 58.679688 161.621094 58.261719 C 163.714844 57.84375 165.816406 57.476562 167.925781 57.160156 C 170.035156 56.84375 172.152344 56.578125 174.277344 56.367188 C 176.398438 56.152344 178.527344 55.992188 180.65625 55.882812 C 182.789062 55.773438 184.921875 55.714844 187.054688 55.707031 C 189.1875 55.703125 191.320312 55.746094 193.453125 55.84375 C 195.582031 55.941406 197.710938 56.089844 199.835938 56.292969 C 201.960938 56.492188 204.078125 56.746094 206.191406 57.050781 C 208.300781 57.351562 210.40625 57.707031 212.5 58.113281 C 214.59375 58.519531 216.679688 58.976562 218.75 59.484375 C 220.824219 59.992188 222.882812 60.550781 224.929688 61.15625 C 226.972656 61.761719 229.003906 62.421875 231.015625 63.125 C 233.03125 63.832031 235.027344 64.585938 237.003906 65.390625 C 238.980469 66.191406 240.9375 67.042969 242.871094 67.941406 C 244.808594 68.839844 246.71875 69.78125 248.609375 70.773438 C 250.5 71.765625 252.363281 72.800781 254.203125 73.882812 C 256.042969 74.964844 257.855469 76.089844 259.640625 77.257812 C 261.421875 78.429688 263.179688 79.640625 264.90625 80.894531 C 266.628906 82.148438 268.324219 83.445312 269.988281 84.78125 C 271.648438 86.121094 273.28125 87.496094 274.875 88.914062 C 276.472656 90.328125 278.03125 91.785156 279.558594 93.277344 C 281.082031 94.769531 282.570312 96.296875 284.019531 97.859375 C 285.472656 99.425781 286.882812 101.023438 288.257812 102.65625 C 289.632812 104.289062 290.964844 105.957031 292.257812 107.652344 C 293.546875 109.351562 294.800781 111.078125 296.007812 112.835938 C 297.214844 114.597656 298.378906 116.382812 299.503906 118.199219 C 300.625 120.011719 301.699219 121.855469 302.734375 123.722656 C 303.765625 125.589844 304.75 127.480469 305.691406 129.398438 C 306.632812 131.3125 307.523438 133.25 308.371094 135.207031 C 309.21875 137.167969 310.015625 139.144531 310.765625 141.144531 C 311.515625 143.140625 312.214844 145.15625 312.867188 147.1875 C 313.519531 149.21875 314.121094 151.265625 314.675781 153.324219 C 314.878906 154.085938 315.078125 154.863281 315.273438 155.652344 L 313.261719 156.355469 C 313.054688 155.527344 312.84375 154.699219 312.621094 153.871094 C 312.074219 151.832031 311.476562 149.800781 310.832031 147.789062 C 310.183594 145.773438 309.488281 143.777344 308.746094 141.800781 C 308 139.820312 307.207031 137.859375 306.367188 135.917969 C 305.527344 133.976562 304.640625 132.058594 303.707031 130.160156 C 302.773438 128.265625 301.792969 126.390625 300.765625 124.542969 C 299.738281 122.691406 298.667969 120.871094 297.554688 119.074219 C 296.4375 117.277344 295.28125 115.507812 294.078125 113.765625 C 292.878906 112.027344 291.632812 110.316406 290.347656 108.636719 C 289.0625 106.957031 287.738281 105.3125 286.371094 103.699219 C 285.003906 102.082031 283.597656 100.503906 282.15625 98.957031 C 280.710938 97.414062 279.230469 95.902344 277.714844 94.429688 C 276.195312 92.957031 274.644531 91.523438 273.058594 90.125 C 271.46875 88.726562 269.847656 87.371094 268.195312 86.054688 C 266.539062 84.734375 264.855469 83.460938 263.136719 82.222656 C 261.421875 80.988281 259.675781 79.796875 257.902344 78.648438 C 256.125 77.496094 254.324219 76.390625 252.496094 75.332031 C 250.664062 74.269531 248.8125 73.253906 246.933594 72.28125 C 245.054688 71.3125 243.152344 70.386719 241.226562 69.511719 C 239.304688 68.632812 237.359375 67.804688 235.394531 67.019531 C 233.429688 66.238281 231.445312 65.503906 229.445312 64.820312 C 227.445312 64.132812 225.429688 63.5 223.398438 62.910156 C 221.367188 62.324219 219.320312 61.789062 217.261719 61.300781 C 215.203125 60.816406 213.136719 60.378906 211.054688 59.996094 C 208.976562 59.609375 206.890625 59.277344 204.792969 58.992188 C 202.695312 58.710938 200.597656 58.480469 198.488281 58.300781 C 196.382812 58.121094 194.269531 57.992188 192.15625 57.914062 C 190.042969 57.835938 187.929688 57.8125 185.816406 57.839844 C 183.699219 57.867188 181.589844 57.945312 179.476562 58.074219 C 177.367188 58.207031 175.261719 58.386719 173.160156 58.621094 C 171.058594 58.855469 168.960938 59.140625 166.875 59.476562 C 164.785156 59.8125 162.707031 60.199219 160.636719 60.636719 C 158.570312 61.074219 156.511719 61.5625 154.46875 62.101562 C 154.785156 61.296875 155.09375 60.492188 155.378906 59.671875 Z M 61.765625 218.921875 C 61.9375 219.597656 62.109375 220.273438 62.289062 220.949219 C 62.839844 223 63.4375 225.03125 64.085938 227.050781 C 64.734375 229.070312 65.433594 231.070312 66.179688 233.054688 C 66.925781 235.039062 67.722656 237.003906 68.566406 238.949219 C 69.40625 240.894531 70.296875 242.816406 71.234375 244.71875 C 72.171875 246.621094 73.15625 248.496094 74.1875 250.351562 C 75.21875 252.203125 76.292969 254.03125 77.410156 255.832031 C 78.53125 257.632812 79.691406 259.402344 80.898438 261.148438 C 82.105469 262.890625 83.355469 264.605469 84.644531 266.285156 C 85.933594 267.96875 87.265625 269.617188 88.636719 271.234375 C 90.007812 272.851562 91.417969 274.433594 92.867188 275.980469 C 94.316406 277.527344 95.804688 279.039062 97.328125 280.515625 C 98.851562 281.988281 100.410156 283.425781 102.003906 284.824219 C 103.597656 286.222656 105.222656 287.578125 106.882812 288.898438 C 108.542969 290.214844 110.234375 291.492188 111.960938 292.726562 C 113.683594 293.964844 115.433594 295.15625 117.214844 296.304688 C 118.996094 297.453125 120.804688 298.558594 122.640625 299.621094 C 124.476562 300.679688 126.339844 301.695312 128.222656 302.664062 C 130.109375 303.632812 132.019531 304.554688 133.949219 305.429688 C 135.878906 306.308594 137.832031 307.132812 139.804688 307.914062 C 141.773438 308.695312 143.765625 309.425781 145.769531 310.105469 C 147.777344 310.789062 149.800781 311.421875 151.839844 312.003906 C 153.878906 312.585938 155.929688 313.121094 157.996094 313.601562 C 160.058594 314.082031 162.132812 314.515625 164.21875 314.894531 C 166.304688 315.277344 168.398438 315.605469 170.5 315.882812 C 172.601562 316.160156 174.710938 316.386719 176.824219 316.558594 C 178.9375 316.734375 181.050781 316.855469 183.171875 316.925781 C 185.289062 316.996094 187.410156 317.015625 189.53125 316.980469 C 191.648438 316.945312 193.765625 316.859375 195.882812 316.722656 C 198 316.585938 200.109375 316.394531 202.214844 316.152344 C 204.324219 315.914062 206.421875 315.621094 208.511719 315.277344 C 210.605469 314.929688 212.6875 314.535156 214.761719 314.089844 C 216.832031 313.640625 218.894531 313.144531 220.941406 312.597656 C 220.609375 313.402344 220.292969 314.210938 219.996094 315.03125 C 217.921875 315.558594 215.839844 316.039062 213.742188 316.464844 C 211.648438 316.890625 209.542969 317.265625 207.429688 317.589844 C 205.3125 317.914062 203.191406 318.183594 201.066406 318.40625 C 198.9375 318.625 196.808594 318.796875 194.671875 318.910156 C 192.535156 319.027344 190.398438 319.09375 188.261719 319.105469 C 186.121094 319.117188 183.984375 319.078125 181.847656 318.988281 C 179.710938 318.898438 177.578125 318.753906 175.449219 318.558594 C 173.320312 318.363281 171.195312 318.117188 169.078125 317.816406 C 166.960938 317.519531 164.851562 317.167969 162.75 316.765625 C 160.648438 316.367188 158.558594 315.914062 156.480469 315.410156 C 154.402344 314.90625 152.335938 314.351562 150.285156 313.75 C 148.234375 313.144531 146.199219 312.492188 144.179688 311.789062 C 142.160156 311.085938 140.15625 310.335938 138.175781 309.535156 C 136.191406 308.734375 134.230469 307.886719 132.285156 306.988281 C 130.34375 306.09375 128.425781 305.152344 126.53125 304.160156 C 124.632812 303.171875 122.761719 302.136719 120.917969 301.058594 C 119.070312 299.976562 117.253906 298.851562 115.464844 297.683594 C 113.671875 296.511719 111.910156 295.300781 110.179688 294.046875 C 108.449219 292.792969 106.746094 291.496094 105.078125 290.15625 C 103.410156 288.820312 101.773438 287.441406 100.171875 286.023438 C 98.570312 284.609375 97.003906 283.152344 95.476562 281.660156 C 93.945312 280.164062 92.449219 278.636719 90.996094 277.070312 C 89.539062 275.503906 88.121094 273.902344 86.742188 272.265625 C 85.363281 270.632812 84.027344 268.964844 82.730469 267.261719 C 81.433594 265.5625 80.179688 263.832031 78.964844 262.070312 C 77.753906 260.308594 76.585938 258.519531 75.457031 256.699219 C 74.332031 254.882812 73.253906 253.035156 72.21875 251.164062 C 71.179688 249.292969 70.191406 247.398438 69.25 245.480469 C 68.304688 243.558594 67.410156 241.617188 66.558594 239.65625 C 65.710938 237.691406 64.910156 235.710938 64.160156 233.707031 C 63.40625 231.707031 62.703125 229.6875 62.050781 227.652344 C 61.394531 225.613281 60.792969 223.5625 60.238281 221.5 C 60.074219 220.875 59.914062 220.25 59.753906 219.628906 Z M 61.765625 218.921875 " fill-opacity="1" fill-rule="evenodd"/></g><g clip-path="url(#8789c4390c)"><path fill="#000000" d="M 230.722656 127.292969 C 229.300781 124.976562 223.546875 121.296875 219.023438 119.78125 C 214.503906 118.265625 209.890625 117.828125 205.136719 118.503906 C 209.917969 115.429688 215.105469 113.460938 221.082031 112.234375 C 216.359375 110.5625 211.953125 109.984375 207.402344 110.789062 C 202.789062 111.609375 198.863281 113.769531 195.371094 117.40625 C 195.773438 111.660156 193.519531 107.332031 189.703125 103.394531 C 189.683594 103.441406 189.667969 103.492188 189.648438 103.539062 C 189.617188 103.496094 189.589844 103.449219 189.558594 103.40625 C 186.621094 108.039062 185.289062 112.730469 186.851562 118.277344 C 182.691406 115.421875 178.414062 114.101562 173.730469 114.234375 C 169.109375 114.363281 164.910156 115.824219 160.625 118.414062 C 166.726562 118.40625 172.203125 119.28125 177.511719 121.328125 C 172.71875 121.628906 168.289062 122.988281 164.167969 125.386719 C 160.046875 127.785156 155.160156 132.550781 154.238281 135.109375 C 160.128906 131.996094 167.253906 130.328125 172.210938 129.640625 C 173.308594 129.484375 174.300781 129.378906 175.148438 129.316406 C 172.433594 130.871094 170.054688 132.613281 168.066406 134.59375 C 163.847656 138.777344 161.382812 144.011719 161.175781 150.695312 C 166.042969 145.75 171.894531 142.410156 177.996094 139.324219 C 174.921875 145.644531 174.246094 152.183594 178.3125 159.203125 C 179.378906 152.351562 182.039062 146.167969 185.875 140.203125 C 185.847656 142.007812 186.148438 145.28125 186.324219 145.371094 C 187.949219 143.265625 189.574219 141.160156 191.234375 139.007812 C 191.464844 138.710938 191.699219 138.417969 191.9375 138.132812 C 193.5625 161.15625 192.007812 184.222656 187.3125 206.726562 L 187.121094 207.636719 L 197.84375 207.636719 L 197.894531 206.9375 C 199.640625 183.550781 198.175781 160.105469 193.550781 137.226562 C 194.144531 137.660156 194.722656 138.113281 195.28125 138.59375 C 197.34375 140.367188 199.363281 142.097656 201.378906 143.832031 C 201.53125 143.707031 201.167969 140.445312 200.773438 138.679688 C 200.773438 138.683594 200.777344 138.683594 200.777344 138.6875 C 205.742188 143.75 209.597656 149.265625 212.027344 155.757812 C 214.589844 148.058594 212.601562 141.792969 208.308594 136.230469 C 214.910156 138.015625 221.316406 140.101562 227.085938 143.957031 C 225.527344 137.457031 222.054688 132.832031 217.078125 129.585938 C 214.726562 128.046875 212.042969 126.824219 209.070312 125.851562 C 209.914062 125.738281 210.90625 125.640625 212.011719 125.570312 C 217.003906 125.246094 224.320312 125.433594 230.722656 127.292969 " fill-opacity="1" fill-rule="nonzero"/></g><g fill="#000000" fill-opacity="1"><g transform="translate(58.003953, 207.585827)"><g><path d="M 24.234375 -55.9375 C 27.210938 -55.9375 30.117188 -55.503906 32.953125 -54.640625 C 35.796875 -53.773438 37.910156 -52.921875 39.296875 -52.078125 L 41.28125 -50.75 L 36.234375 -40.75 C 35.828125 -41.019531 35.269531 -41.363281 34.5625 -41.78125 C 33.851562 -42.207031 32.519531 -42.773438 30.5625 -43.484375 C 28.613281 -44.191406 26.796875 -44.546875 25.109375 -44.546875 C 23.015625 -44.546875 21.398438 -44.101562 20.265625 -43.21875 C 19.140625 -42.332031 18.578125 -41.132812 18.578125 -39.625 C 18.578125 -38.863281 18.84375 -38.160156 19.375 -37.515625 C 19.90625 -36.878906 20.816406 -36.191406 22.109375 -35.453125 C 23.398438 -34.722656 24.53125 -34.132812 25.5 -33.6875 C 26.476562 -33.25 27.988281 -32.585938 30.03125 -31.703125 C 33.582031 -30.191406 36.613281 -28.132812 39.125 -25.53125 C 41.632812 -22.9375 42.890625 -20 42.890625 -16.71875 C 42.890625 -13.5625 42.320312 -10.804688 41.1875 -8.453125 C 40.050781 -6.097656 38.492188 -4.253906 36.515625 -2.921875 C 34.546875 -1.597656 32.363281 -0.613281 29.96875 0.03125 C 27.570312 0.675781 24.972656 1 22.171875 1 C 19.773438 1 17.421875 0.753906 15.109375 0.265625 C 12.804688 -0.222656 10.878906 -0.832031 9.328125 -1.5625 C 7.773438 -2.289062 6.375 -3.007812 5.125 -3.71875 C 3.882812 -4.4375 2.972656 -5.039062 2.390625 -5.53125 L 1.53125 -6.265625 L 7.796875 -16.78125 C 8.328125 -16.332031 9.054688 -15.765625 9.984375 -15.078125 C 10.921875 -14.390625 12.578125 -13.46875 14.953125 -12.3125 C 17.328125 -11.164062 19.425781 -10.59375 21.25 -10.59375 C 26.53125 -10.59375 29.171875 -12.390625 29.171875 -15.984375 C 29.171875 -16.734375 28.976562 -17.429688 28.59375 -18.078125 C 28.21875 -18.722656 27.550781 -19.367188 26.59375 -20.015625 C 25.644531 -20.660156 24.800781 -21.171875 24.0625 -21.546875 C 23.332031 -21.921875 22.132812 -22.492188 20.46875 -23.265625 C 18.8125 -24.046875 17.582031 -24.640625 16.78125 -25.046875 C 13.445312 -26.679688 10.867188 -28.726562 9.046875 -31.1875 C 7.234375 -33.65625 6.328125 -36.3125 6.328125 -39.15625 C 6.328125 -44.082031 8.144531 -48.109375 11.78125 -51.234375 C 15.425781 -54.367188 19.578125 -55.9375 24.234375 -55.9375 Z M 24.234375 -55.9375 "/></g></g></g><g fill="#000000" fill-opacity="1"><g transform="translate(97.357212, 207.585827)"><g><path d="M 6.328125 -4.21875 C 3.128906 -7.707031 1.53125 -11.984375 1.53125 -17.046875 C 1.53125 -22.109375 3.128906 -26.390625 6.328125 -29.890625 C 9.523438 -33.398438 13.585938 -35.15625 18.515625 -35.15625 C 23.046875 -35.15625 26.773438 -33.738281 29.703125 -30.90625 L 29.703125 -34.15625 L 41.484375 -34.15625 L 41.484375 0 L 29.828125 0 L 29.828125 -3.859375 L 29.703125 -3.859375 C 26.773438 -0.617188 23.046875 1 18.515625 1 C 13.585938 1 9.523438 -0.738281 6.328125 -4.21875 Z M 16.34375 -22.84375 C 14.8125 -21.332031 14.046875 -19.398438 14.046875 -17.046875 C 14.046875 -14.691406 14.78125 -12.769531 16.25 -11.28125 C 17.71875 -9.800781 19.648438 -9.0625 22.046875 -9.0625 C 24.347656 -9.0625 26.242188 -9.8125 27.734375 -11.3125 C 29.222656 -12.820312 29.96875 -14.734375 29.96875 -17.046875 C 29.96875 -19.398438 29.203125 -21.332031 27.671875 -22.84375 C 26.140625 -24.351562 24.265625 -25.109375 22.046875 -25.109375 C 19.773438 -25.109375 17.875 -24.351562 16.34375 -22.84375 Z M 16.34375 -22.84375 "/></g></g></g><g fill="#000000" fill-opacity="1"><g transform="translate(137.442952, 207.585827)"><g><path d="M 4 0 L 4 -34.15625 L 15.78125 -34.15625 L 15.78125 -30.5625 L 15.921875 -30.5625 C 18.984375 -33.625 22.242188 -35.15625 25.703125 -35.15625 C 27.390625 -35.15625 29.066406 -34.929688 30.734375 -34.484375 C 32.398438 -34.046875 34 -33.359375 35.53125 -32.421875 C 37.0625 -31.492188 38.300781 -30.175781 39.25 -28.46875 C 40.207031 -26.757812 40.6875 -24.773438 40.6875 -22.515625 L 40.6875 0 L 28.90625 0 L 28.90625 -19.3125 C 28.90625 -21.082031 28.335938 -22.632812 27.203125 -23.96875 C 26.066406 -25.300781 24.59375 -25.96875 22.78125 -25.96875 C 21 -25.96875 19.382812 -25.28125 17.9375 -23.90625 C 16.5 -22.53125 15.78125 -21 15.78125 -19.3125 L 15.78125 0 Z M 4 0 "/></g></g></g><g fill="#000000" fill-opacity="1"><g transform="translate(176.074518, 207.585827)"><g/></g></g><g fill="#000000" fill-opacity="1"><g transform="translate(188.858517, 207.585827)"><g/></g></g><g fill="#000000" fill-opacity="1"><g transform="translate(201.647231, 207.585827)"><g><path d="M 4 0 L 4 -34.15625 L 15.78125 -34.15625 L 15.78125 -29.234375 L 15.921875 -29.234375 C 16.003906 -29.410156 16.144531 -29.628906 16.34375 -29.890625 C 16.539062 -30.160156 16.972656 -30.628906 17.640625 -31.296875 C 18.304688 -31.960938 19.015625 -32.5625 19.765625 -33.09375 C 20.523438 -33.625 21.503906 -34.097656 22.703125 -34.515625 C 23.898438 -34.941406 25.125 -35.15625 26.375 -35.15625 C 27.65625 -35.15625 28.914062 -34.976562 30.15625 -34.625 C 31.40625 -34.269531 32.316406 -33.914062 32.890625 -33.5625 L 33.828125 -33.03125 L 28.90625 -23.046875 C 27.4375 -24.285156 25.394531 -24.90625 22.78125 -24.90625 C 21.351562 -24.90625 20.128906 -24.59375 19.109375 -23.96875 C 18.085938 -23.351562 17.363281 -22.597656 16.9375 -21.703125 C 16.519531 -20.816406 16.222656 -20.0625 16.046875 -19.4375 C 15.867188 -18.820312 15.78125 -18.335938 15.78125 -17.984375 L 15.78125 0 Z M 4 0 "/></g></g></g><g fill="#000000" fill-opacity="1"><g transform="translate(229.41389, 207.585827)"><g><path d="M 5.125 -53.203125 C 6.5 -54.578125 8.140625 -55.265625 10.046875 -55.265625 C 11.960938 -55.265625 13.609375 -54.578125 14.984375 -53.203125 C 16.359375 -51.828125 17.046875 -50.1875 17.046875 -48.28125 C 17.046875 -46.375 16.359375 -44.726562 14.984375 -43.34375 C 13.609375 -41.96875 11.960938 -41.28125 10.046875 -41.28125 C 8.140625 -41.28125 6.5 -41.96875 5.125 -43.34375 C 3.75 -44.726562 3.0625 -46.375 3.0625 -48.28125 C 3.0625 -50.1875 3.75 -51.828125 5.125 -53.203125 Z M 4 -34.15625 L 4 0 L 15.78125 0 L 15.78125 -34.15625 Z M 4 -34.15625 "/></g></g></g><g fill="#000000" fill-opacity="1"><g transform="translate(244.128989, 207.585827)"><g><path d="M 39.15625 -29.921875 C 42.351562 -26.441406 43.953125 -22.171875 43.953125 -17.109375 C 43.953125 -12.046875 42.351562 -7.757812 39.15625 -4.25 C 35.957031 -0.75 31.894531 1 26.96875 1 C 22.4375 1 18.707031 -0.421875 15.78125 -3.265625 L 15.78125 17.3125 L 4 17.3125 L 4 -34.15625 L 15.65625 -34.15625 L 15.65625 -30.296875 L 15.78125 -30.296875 C 18.707031 -33.535156 22.4375 -35.15625 26.96875 -35.15625 C 31.894531 -35.15625 35.957031 -33.410156 39.15625 -29.921875 Z M 29.140625 -11.3125 C 30.671875 -12.820312 31.4375 -14.753906 31.4375 -17.109375 C 31.4375 -19.460938 30.703125 -21.382812 29.234375 -22.875 C 27.765625 -24.363281 25.832031 -25.109375 23.4375 -25.109375 C 21.132812 -25.109375 19.238281 -24.351562 17.75 -22.84375 C 16.257812 -21.332031 15.515625 -19.421875 15.515625 -17.109375 C 15.515625 -14.753906 16.28125 -12.820312 17.8125 -11.3125 C 19.34375 -9.8125 21.21875 -9.0625 23.4375 -9.0625 C 25.707031 -9.0625 27.609375 -9.8125 29.140625 -11.3125 Z M 29.140625 -11.3125 "/></g></g></g><g fill="#000000" fill-opacity="1"><g transform="translate(284.214729, 207.585827)"><g><path d="M 18.84375 -35.15625 C 20.800781 -35.15625 22.734375 -34.929688 24.640625 -34.484375 C 26.546875 -34.046875 27.96875 -33.601562 28.90625 -33.15625 L 30.296875 -32.5 L 26.4375 -24.765625 C 23.769531 -26.191406 21.238281 -26.90625 18.84375 -26.90625 C 17.507812 -26.90625 16.566406 -26.757812 16.015625 -26.46875 C 15.460938 -26.175781 15.1875 -25.632812 15.1875 -24.84375 C 15.1875 -24.664062 15.207031 -24.488281 15.25 -24.3125 C 15.289062 -24.132812 15.378906 -23.96875 15.515625 -23.8125 C 15.648438 -23.65625 15.769531 -23.519531 15.875 -23.40625 C 15.988281 -23.289062 16.175781 -23.164062 16.4375 -23.03125 C 16.707031 -22.90625 16.921875 -22.804688 17.078125 -22.734375 C 17.234375 -22.671875 17.488281 -22.570312 17.84375 -22.4375 C 18.195312 -22.3125 18.460938 -22.210938 18.640625 -22.140625 C 18.816406 -22.078125 19.113281 -21.976562 19.53125 -21.84375 C 19.957031 -21.707031 20.285156 -21.617188 20.515625 -21.578125 C 21.890625 -21.179688 23.085938 -20.738281 24.109375 -20.25 C 25.128906 -19.757812 26.203125 -19.09375 27.328125 -18.25 C 28.460938 -17.40625 29.34375 -16.335938 29.96875 -15.046875 C 30.59375 -13.765625 30.90625 -12.300781 30.90625 -10.65625 C 30.90625 -2.882812 25.507812 1 14.71875 1 C 12.269531 1 9.945312 0.625 7.75 -0.125 C 5.5625 -0.882812 3.976562 -1.640625 3 -2.390625 L 1.53125 -3.59375 L 6.328125 -11.65625 C 6.679688 -11.34375 7.144531 -10.972656 7.71875 -10.546875 C 8.300781 -10.128906 9.347656 -9.550781 10.859375 -8.8125 C 12.367188 -8.082031 13.675781 -7.71875 14.78125 -7.71875 C 17.226562 -7.71875 18.453125 -8.539062 18.453125 -10.1875 C 18.453125 -10.945312 18.140625 -11.535156 17.515625 -11.953125 C 16.890625 -12.378906 15.832031 -12.859375 14.34375 -13.390625 C 12.863281 -13.921875 11.703125 -14.40625 10.859375 -14.84375 C 8.722656 -15.957031 7.03125 -17.210938 5.78125 -18.609375 C 4.539062 -20.003906 3.921875 -21.859375 3.921875 -24.171875 C 3.921875 -27.640625 5.265625 -30.335938 7.953125 -32.265625 C 10.640625 -34.191406 14.269531 -35.15625 18.84375 -35.15625 Z M 18.84375 -35.15625 "/></g></g></g><path fill="#000000" d="M 76.433594 82.296875 C 86.730469 74.421875 99.035156 75.375 106.953125 85.757812 C 107.21875 86.152344 107.566406 86.441406 108.003906 86.628906 C 108.441406 86.816406 108.890625 86.871094 109.359375 86.792969 C 109.890625 86.894531 110.402344 86.828125 110.886719 86.597656 C 111.375 86.363281 111.75 86.011719 112.003906 85.535156 C 114.773438 80.96875 118.511719 77.230469 123.8125 75.847656 C 125.109375 75.535156 126.425781 75.433594 127.753906 75.539062 C 129.085938 75.640625 130.371094 75.949219 131.605469 76.457031 C 134.082031 77.355469 135.910156 79.722656 138.523438 79.972656 C 138.597656 79.976562 138.671875 79.960938 138.738281 79.933594 C 138.808594 79.902344 138.867188 79.859375 138.914062 79.800781 C 138.960938 79.746094 138.992188 79.679688 139.011719 79.605469 C 139.027344 79.535156 139.027344 79.460938 139.007812 79.390625 C 137.847656 74.089844 127.921875 71.96875 123.394531 71.96875 C 117.679688 72.066406 112.890625 75.292969 109.386719 79.554688 C 99.546875 69.355469 84.984375 70.199219 76.210938 82.101562 C 76.101562 82.242188 76.308594 82.378906 76.433594 82.296875 Z M 76.433594 82.296875 " fill-opacity="1" fill-rule="nonzero"/><path fill="#000000" d="M 144.960938 99.75 C 143.890625 99.8125 142.839844 99.992188 141.808594 100.289062 C 140.78125 100.582031 139.792969 100.984375 138.851562 101.496094 C 137.910156 102.003906 137.035156 102.613281 136.222656 103.316406 C 135.414062 104.015625 134.691406 104.800781 134.054688 105.660156 C 126.34375 97.714844 115.050781 98.378906 108.210938 107.640625 C 108.128906 107.75 108.28125 107.859375 108.378906 107.792969 C 116.40625 101.660156 126 102.351562 132.15625 110.476562 C 132.363281 110.789062 132.636719 111.015625 132.976562 111.164062 C 133.320312 111.3125 133.671875 111.355469 134.039062 111.292969 C 134.441406 111.355469 134.828125 111.296875 135.191406 111.117188 C 135.554688 110.9375 135.835938 110.667969 136.03125 110.3125 C 137 108.492188 138.28125 106.925781 139.875 105.617188 C 141.46875 104.308594 143.25 103.351562 145.222656 102.753906 C 147.300781 102.253906 149.328125 102.417969 151.300781 103.238281 C 153.238281 103.929688 154.648438 105.769531 156.671875 106.007812 C 156.792969 106.007812 156.890625 105.964844 156.96875 105.871094 C 157.046875 105.773438 157.070312 105.667969 157.042969 105.550781 C 156.296875 101.398438 148.492188 99.652344 144.960938 99.75 Z M 144.960938 99.75 " fill-opacity="1" fill-rule="nonzero"/><g clip-path="url(#c6048c0620)"><path fill="#000000" d="M 84.15625 109.5625 C 83.195312 109.621094 82.25 109.78125 81.324219 110.046875 C 80.398438 110.3125 79.511719 110.675781 78.664062 111.132812 C 77.820312 111.59375 77.03125 112.136719 76.304688 112.769531 C 75.578125 113.402344 74.929688 114.105469 74.355469 114.878906 C 67.433594 107.738281 57.277344 108.332031 51.117188 116.664062 C 51.117188 116.761719 51.117188 116.859375 51.269531 116.804688 C 58.492188 111.265625 67.101562 111.917969 72.640625 119.226562 C 72.828125 119.5 73.074219 119.703125 73.378906 119.832031 C 73.683594 119.960938 74 120 74.328125 119.945312 C 74.691406 120.007812 75.035156 119.957031 75.367188 119.796875 C 75.699219 119.636719 75.953125 119.394531 76.128906 119.074219 C 77.003906 117.429688 78.160156 116.023438 79.601562 114.84375 C 81.039062 113.664062 82.648438 112.808594 84.433594 112.277344 C 86.300781 111.832031 88.125 111.972656 89.898438 112.707031 C 91.628906 113.328125 92.902344 114.988281 94.714844 115.167969 C 94.828125 115.171875 94.917969 115.128906 94.988281 115.046875 C 95.058594 114.960938 95.085938 114.863281 95.0625 114.753906 C 94.273438 111.042969 87.324219 109.507812 84.15625 109.5625 Z M 84.15625 109.5625 " fill-opacity="1" fill-rule="nonzero"/></g><g clip-path="url(#668a093f2b)"><path fill="#000000" d="M 124.683594 130.105469 C 123.332031 130.183594 122.058594 130.546875 120.871094 131.191406 C 119.679688 131.832031 118.679688 132.699219 117.875 133.785156 C 113.054688 128.832031 106.011719 129.246094 101.734375 135.03125 C 101.734375 135.03125 101.734375 135.171875 101.84375 135.128906 C 106.855469 131.292969 112.835938 131.722656 116.683594 136.804688 C 116.8125 136.996094 116.984375 137.136719 117.195312 137.230469 C 117.410156 137.320312 117.628906 137.351562 117.859375 137.316406 C 118.109375 137.355469 118.347656 137.316406 118.578125 137.207031 C 118.804688 137.09375 118.980469 136.929688 119.105469 136.707031 C 119.710938 135.570312 120.511719 134.59375 121.507812 133.773438 C 122.5 132.957031 123.617188 132.359375 124.847656 131.988281 C 126.140625 131.691406 127.394531 131.800781 128.613281 132.320312 C 129.820312 132.75 130.703125 133.910156 131.964844 134.035156 C 132.042969 134.039062 132.105469 134.007812 132.152344 133.949219 C 132.203125 133.886719 132.21875 133.820312 132.199219 133.746094 C 131.714844 131.171875 126.882812 130.105469 124.683594 130.105469 Z M 124.683594 130.105469 " fill-opacity="1" fill-rule="nonzero"/></g><g clip-path="url(#fe35d6df14)"><path fill="#000000" d="M 194.402344 85.535156 C 193.382812 85.59375 192.425781 85.867188 191.527344 86.351562 C 190.632812 86.835938 189.878906 87.484375 189.265625 88.304688 C 189.074219 88.082031 188.867188 87.875 188.648438 87.675781 C 188.429688 87.480469 188.199219 87.296875 187.957031 87.125 C 187.71875 86.953125 187.46875 86.796875 187.210938 86.65625 C 186.953125 86.515625 186.6875 86.390625 186.414062 86.277344 C 186.140625 86.167969 185.863281 86.074219 185.578125 85.996094 C 185.292969 85.917969 185.007812 85.855469 184.714844 85.808594 C 184.425781 85.765625 184.132812 85.734375 183.839844 85.722656 C 183.542969 85.714844 183.25 85.71875 182.957031 85.742188 C 182.664062 85.765625 182.371094 85.804688 182.082031 85.859375 C 181.792969 85.917969 181.507812 85.988281 181.226562 86.078125 C 180.945312 86.167969 180.671875 86.273438 180.402344 86.394531 C 180.136719 86.515625 179.875 86.652344 179.621094 86.804688 C 179.371094 86.957031 179.125 87.121094 178.894531 87.300781 C 178.660156 87.480469 178.4375 87.671875 178.226562 87.878906 C 178.015625 88.085938 177.816406 88.300781 177.632812 88.53125 C 177.445312 88.757812 177.273438 88.996094 177.113281 89.246094 C 177.113281 89.246094 177.113281 89.339844 177.199219 89.246094 C 180.976562 86.351562 185.503906 86.683594 188.382812 90.503906 C 188.589844 90.816406 188.882812 90.945312 189.253906 90.890625 C 189.441406 90.921875 189.625 90.894531 189.796875 90.8125 C 189.96875 90.726562 190.101562 90.601562 190.195312 90.433594 C 190.652344 89.578125 191.253906 88.839844 192.007812 88.222656 C 192.757812 87.609375 193.597656 87.160156 194.527344 86.878906 C 195.5 86.640625 196.453125 86.714844 197.378906 87.097656 C 198.292969 87.429688 198.957031 88.289062 199.910156 88.386719 C 199.964844 88.386719 200.011719 88.367188 200.046875 88.324219 C 200.082031 88.28125 200.089844 88.234375 200.078125 88.179688 C 199.691406 86.308594 196.050781 85.507812 194.402344 85.535156 Z M 194.402344 85.535156 " fill-opacity="1" fill-rule="nonzero"/></g><g clip-path="url(#6e004aa5ca)"><g clip-path="url(#4020278158)"><g clip-path="url(#ce2d0c6a07)"><g clip-path="url(#3faa05986c)"><path fill="#000000" d="M 107.109375 251.554688 L 104.3125 249.863281 C 103.328125 249.269531 102.144531 249.089844 101.027344 249.367188 C 99.910156 249.640625 98.949219 250.351562 98.351562 251.335938 L 93.109375 260.039062 L 93.09375 260.03125 L 91.882812 262.035156 L 91.898438 262.046875 L 85.660156 272.398438 L 97.871094 279.777344 C 97.851562 280.289062 97.90625 280.804688 98.03125 281.3125 C 98.386719 282.757812 99.300781 284.003906 100.578125 284.773438 C 101.851562 285.542969 103.378906 285.773438 104.824219 285.417969 C 105.332031 285.292969 105.8125 285.101562 106.257812 284.847656 L 132.5 300.707031 C 132.484375 301.21875 132.535156 301.734375 132.660156 302.238281 C 133.015625 303.683594 133.933594 304.933594 135.207031 305.703125 C 136.480469 306.472656 138.011719 306.703125 139.457031 306.347656 C 139.960938 306.222656 140.441406 306.027344 140.886719 305.777344 L 150.332031 311.484375 L 157.292969 299.964844 L 159.886719 287.875 C 160.132812 286.734375 160.015625 285.539062 159.550781 284.46875 C 159.089844 283.394531 158.300781 282.488281 157.300781 281.886719 L 133.839844 267.707031 L 134.117188 263.859375 L 108.886719 248.613281 Z M 140.914062 302.585938 C 141.363281 301.839844 141.5 300.949219 141.292969 300.105469 C 141.082031 299.265625 140.550781 298.539062 139.808594 298.089844 C 139.0625 297.640625 138.171875 297.503906 137.332031 297.714844 C 136.488281 297.921875 135.761719 298.457031 135.3125 299.199219 C 134.863281 299.941406 134.730469 300.832031 134.9375 301.675781 C 135.144531 302.519531 135.675781 303.246094 136.421875 303.695312 C 137.160156 304.144531 138.054688 304.277344 138.894531 304.070312 C 139.738281 303.859375 140.464844 303.328125 140.914062 302.585938 Z M 106.285156 281.65625 C 106.734375 280.914062 106.867188 280.023438 106.660156 279.179688 C 106.453125 278.335938 105.917969 277.609375 105.175781 277.164062 C 104.433594 276.714844 103.542969 276.578125 102.699219 276.785156 C 101.855469 276.992188 101.132812 277.527344 100.683594 278.269531 C 100.234375 279.015625 100.097656 279.90625 100.304688 280.746094 C 100.511719 281.589844 101.046875 282.316406 101.789062 282.765625 C 102.53125 283.214844 103.421875 283.351562 104.265625 283.140625 C 105.109375 282.933594 105.835938 282.398438 106.285156 281.65625 Z M 93.902344 263.257812 L 88.875 271.605469 L 98.480469 277.410156 C 98.542969 277.289062 98.609375 277.175781 98.675781 277.058594 C 99.449219 275.785156 100.691406 274.867188 102.140625 274.511719 C 103.585938 274.152344 105.113281 274.382812 106.390625 275.15625 C 107.664062 275.925781 108.578125 277.171875 108.9375 278.617188 C 109.292969 280.0625 109.058594 281.59375 108.289062 282.867188 C 108.21875 282.984375 108.148438 283.09375 108.070312 283.203125 L 133.113281 298.339844 C 133.175781 298.21875 133.238281 298.101562 133.308594 297.988281 C 134.078125 296.714844 135.324219 295.796875 136.769531 295.4375 C 138.21875 295.082031 139.746094 295.3125 141.019531 296.082031 C 141.421875 296.324219 141.789062 296.617188 142.113281 296.945312 L 144.128906 293.609375 Z M 149.539062 308.265625 L 154.578125 299.925781 L 144.796875 294.015625 L 142.644531 297.574219 C 143.074219 298.15625 143.390625 298.828125 143.566406 299.546875 C 143.921875 300.992188 143.691406 302.519531 142.917969 303.796875 C 142.851562 303.910156 142.777344 304.023438 142.699219 304.132812 Z M 148.542969 297.195312 L 145.332031 295.253906 L 144.925781 295.921875 L 148.140625 297.867188 Z M 95.113281 261.25 L 145.339844 291.605469 L 151.628906 281.199219 L 103.097656 251.871094 C 102.648438 251.597656 102.101562 251.515625 101.589844 251.640625 C 101.074219 251.769531 100.632812 252.09375 100.359375 252.546875 Z M 152.296875 281.601562 L 146.007812 292.007812 L 155.386719 297.675781 L 157.597656 287.386719 C 157.738281 286.71875 157.667969 286.023438 157.398438 285.398438 C 157.128906 284.769531 156.667969 284.242188 156.085938 283.890625 Z M 109.113281 252.765625 L 131.585938 266.347656 L 131.675781 265.125 L 109.679688 251.832031 L 109.113281 252.765625 " fill-opacity="1" fill-rule="evenodd"/></g></g></g></g></svg>