<svg xmlns="http://www.w3.org/2000/svg" xmlns:xlink="http://www.w3.org/1999/xlink" width="500" zoomAndPan="magnify" viewBox="0 0 375 374.999991" height="500" preserveAspectRatio="xMidYMid meet" version="1.0"><defs><g/><clipPath id="b7f35e80d4"><path d="M 162.101562 112.882812 L 238.601562 112.882812 L 238.601562 217 L 162.101562 217 Z M 162.101562 112.882812 " clip-rule="nonzero"/></clipPath></defs><g clip-path="url(#b7f35e80d4)"><path fill="#ffffff" d="M 238.40625 136.75 C 236.988281 134.433594 231.25 130.761719 226.738281 129.246094 C 222.230469 127.734375 217.628906 127.296875 212.886719 127.972656 C 217.65625 124.902344 222.832031 122.9375 228.792969 121.710938 C 224.082031 120.046875 219.683594 119.464844 215.144531 120.273438 C 210.542969 121.089844 206.628906 123.246094 203.144531 126.875 C 203.546875 121.136719 201.296875 116.816406 197.492188 112.886719 C 197.472656 112.933594 197.453125 112.980469 197.433594 113.03125 C 197.402344 112.988281 197.375 112.941406 197.34375 112.898438 C 194.417969 117.523438 193.085938 122.207031 194.644531 127.746094 C 190.496094 124.894531 186.226562 123.578125 181.554688 123.707031 C 176.945312 123.839844 172.757812 125.296875 168.480469 127.882812 C 174.566406 127.875 180.035156 128.75 185.328125 130.792969 C 180.542969 131.09375 176.125 132.453125 172.019531 134.847656 C 167.90625 137.242188 163.03125 142 162.109375 144.554688 C 167.988281 141.445312 175.097656 139.78125 180.039062 139.09375 C 181.136719 138.9375 182.125 138.835938 182.96875 138.769531 C 180.261719 140.320312 177.890625 142.0625 175.90625 144.039062 C 171.699219 148.21875 169.238281 153.445312 169.03125 160.117188 C 173.886719 155.179688 179.726562 151.84375 185.8125 148.765625 C 182.742188 155.074219 182.070312 161.601562 186.128906 168.613281 C 187.191406 161.773438 189.84375 155.597656 193.671875 149.640625 C 193.640625 151.445312 193.945312 154.710938 194.117188 154.800781 C 195.738281 152.699219 197.359375 150.597656 199.015625 148.449219 C 199.246094 148.152344 199.480469 147.859375 199.71875 147.574219 C 201.339844 170.5625 199.789062 193.597656 195.101562 216.070312 L 194.914062 216.976562 L 205.609375 216.976562 L 205.660156 216.277344 C 207.402344 192.925781 205.941406 169.515625 201.328125 146.667969 C 201.921875 147.101562 202.496094 147.554688 203.054688 148.035156 C 205.113281 149.804688 207.125 151.53125 209.136719 153.261719 C 209.289062 153.140625 208.925781 149.882812 208.53125 148.121094 C 208.535156 148.125 208.535156 148.125 208.535156 148.125 C 213.488281 153.183594 217.332031 158.691406 219.757812 165.171875 C 222.3125 157.484375 220.332031 151.230469 216.050781 145.671875 C 222.632812 147.453125 229.023438 149.539062 234.78125 153.390625 C 233.226562 146.898438 229.761719 142.277344 224.796875 139.039062 C 222.453125 137.503906 219.777344 136.28125 216.808594 135.308594 C 217.652344 135.199219 218.640625 135.101562 219.742188 135.03125 C 224.722656 134.703125 232.019531 134.894531 238.40625 136.75 " fill-opacity="1" fill-rule="nonzero"/></g><g fill="#ffffff" fill-opacity="1"><g transform="translate(65.877253, 217.077471)"><g><path d="M 24.234375 -55.9375 C 27.210938 -55.9375 30.117188 -55.503906 32.953125 -54.640625 C 35.796875 -53.773438 37.910156 -52.921875 39.296875 -52.078125 L 41.28125 -50.75 L 36.234375 -40.75 C 35.828125 -41.019531 35.269531 -41.363281 34.5625 -41.78125 C 33.851562 -42.207031 32.519531 -42.773438 30.5625 -43.484375 C 28.613281 -44.191406 26.796875 -44.546875 25.109375 -44.546875 C 23.015625 -44.546875 21.398438 -44.101562 20.265625 -43.21875 C 19.140625 -42.332031 18.578125 -41.132812 18.578125 -39.625 C 18.578125 -38.863281 18.84375 -38.160156 19.375 -37.515625 C 19.90625 -36.878906 20.816406 -36.191406 22.109375 -35.453125 C 23.398438 -34.722656 24.53125 -34.132812 25.5 -33.6875 C 26.476562 -33.25 27.988281 -32.585938 30.03125 -31.703125 C 33.582031 -30.191406 36.613281 -28.132812 39.125 -25.53125 C 41.632812 -22.9375 42.890625 -20 42.890625 -16.71875 C 42.890625 -13.5625 42.320312 -10.804688 41.1875 -8.453125 C 40.050781 -6.097656 38.492188 -4.253906 36.515625 -2.921875 C 34.546875 -1.597656 32.363281 -0.613281 29.96875 0.03125 C 27.570312 0.675781 24.972656 1 22.171875 1 C 19.773438 1 17.421875 0.753906 15.109375 0.265625 C 12.804688 -0.222656 10.878906 -0.832031 9.328125 -1.5625 C 7.773438 -2.289062 6.375 -3.007812 5.125 -3.71875 C 3.882812 -4.4375 2.972656 -5.039062 2.390625 -5.53125 L 1.53125 -6.265625 L 7.796875 -16.78125 C 8.328125 -16.332031 9.054688 -15.765625 9.984375 -15.078125 C 10.921875 -14.390625 12.578125 -13.46875 14.953125 -12.3125 C 17.328125 -11.164062 19.425781 -10.59375 21.25 -10.59375 C 26.53125 -10.59375 29.171875 -12.390625 29.171875 -15.984375 C 29.171875 -16.734375 28.976562 -17.429688 28.59375 -18.078125 C 28.21875 -18.722656 27.550781 -19.367188 26.59375 -20.015625 C 25.644531 -20.660156 24.800781 -21.171875 24.0625 -21.546875 C 23.332031 -21.921875 22.132812 -22.492188 20.46875 -23.265625 C 18.8125 -24.046875 17.582031 -24.640625 16.78125 -25.046875 C 13.445312 -26.679688 10.867188 -28.726562 9.046875 -31.1875 C 7.234375 -33.65625 6.328125 -36.3125 6.328125 -39.15625 C 6.328125 -44.082031 8.144531 -48.109375 11.78125 -51.234375 C 15.425781 -54.367188 19.578125 -55.9375 24.234375 -55.9375 Z M 24.234375 -55.9375 "/></g></g></g><g fill="#ffffff" fill-opacity="1"><g transform="translate(105.230513, 217.077471)"><g><path d="M 6.328125 -4.21875 C 3.128906 -7.707031 1.53125 -11.984375 1.53125 -17.046875 C 1.53125 -22.109375 3.128906 -26.390625 6.328125 -29.890625 C 9.523438 -33.398438 13.585938 -35.15625 18.515625 -35.15625 C 23.046875 -35.15625 26.773438 -33.738281 29.703125 -30.90625 L 29.703125 -34.15625 L 41.484375 -34.15625 L 41.484375 0 L 29.828125 0 L 29.828125 -3.859375 L 29.703125 -3.859375 C 26.773438 -0.617188 23.046875 1 18.515625 1 C 13.585938 1 9.523438 -0.738281 6.328125 -4.21875 Z M 16.34375 -22.84375 C 14.8125 -21.332031 14.046875 -19.398438 14.046875 -17.046875 C 14.046875 -14.691406 14.78125 -12.769531 16.25 -11.28125 C 17.71875 -9.800781 19.648438 -9.0625 22.046875 -9.0625 C 24.347656 -9.0625 26.242188 -9.8125 27.734375 -11.3125 C 29.222656 -12.820312 29.96875 -14.734375 29.96875 -17.046875 C 29.96875 -19.398438 29.203125 -21.332031 27.671875 -22.84375 C 26.140625 -24.351562 24.265625 -25.109375 22.046875 -25.109375 C 19.773438 -25.109375 17.875 -24.351562 16.34375 -22.84375 Z M 16.34375 -22.84375 "/></g></g></g><g fill="#ffffff" fill-opacity="1"><g transform="translate(145.316253, 217.077471)"><g><path d="M 4 0 L 4 -34.15625 L 15.78125 -34.15625 L 15.78125 -30.5625 L 15.921875 -30.5625 C 18.984375 -33.625 22.242188 -35.15625 25.703125 -35.15625 C 27.390625 -35.15625 29.066406 -34.929688 30.734375 -34.484375 C 32.398438 -34.046875 34 -33.359375 35.53125 -32.421875 C 37.0625 -31.492188 38.300781 -30.175781 39.25 -28.46875 C 40.207031 -26.757812 40.6875 -24.773438 40.6875 -22.515625 L 40.6875 0 L 28.90625 0 L 28.90625 -19.3125 C 28.90625 -21.082031 28.335938 -22.632812 27.203125 -23.96875 C 26.066406 -25.300781 24.59375 -25.96875 22.78125 -25.96875 C 21 -25.96875 19.382812 -25.28125 17.9375 -23.90625 C 16.5 -22.53125 15.78125 -21 15.78125 -19.3125 L 15.78125 0 Z M 4 0 "/></g></g></g><g fill="#ffffff" fill-opacity="1"><g transform="translate(183.947818, 217.077471)"><g/></g></g><g fill="#ffffff" fill-opacity="1"><g transform="translate(196.731817, 217.077471)"><g/></g></g><g fill="#ffffff" fill-opacity="1"><g transform="translate(209.520531, 217.077471)"><g><path d="M 4 0 L 4 -34.15625 L 15.78125 -34.15625 L 15.78125 -29.234375 L 15.921875 -29.234375 C 16.003906 -29.410156 16.144531 -29.628906 16.34375 -29.890625 C 16.539062 -30.160156 16.972656 -30.628906 17.640625 -31.296875 C 18.304688 -31.960938 19.015625 -32.5625 19.765625 -33.09375 C 20.523438 -33.625 21.503906 -34.097656 22.703125 -34.515625 C 23.898438 -34.941406 25.125 -35.15625 26.375 -35.15625 C 27.65625 -35.15625 28.914062 -34.976562 30.15625 -34.625 C 31.40625 -34.269531 32.316406 -33.914062 32.890625 -33.5625 L 33.828125 -33.03125 L 28.90625 -23.046875 C 27.4375 -24.285156 25.394531 -24.90625 22.78125 -24.90625 C 21.351562 -24.90625 20.128906 -24.59375 19.109375 -23.96875 C 18.085938 -23.351562 17.363281 -22.597656 16.9375 -21.703125 C 16.519531 -20.816406 16.222656 -20.0625 16.046875 -19.4375 C 15.867188 -18.820312 15.78125 -18.335938 15.78125 -17.984375 L 15.78125 0 Z M 4 0 "/></g></g></g><g fill="#ffffff" fill-opacity="1"><g transform="translate(237.287191, 217.077471)"><g><path d="M 5.125 -53.203125 C 6.5 -54.578125 8.140625 -55.265625 10.046875 -55.265625 C 11.960938 -55.265625 13.609375 -54.578125 14.984375 -53.203125 C 16.359375 -51.828125 17.046875 -50.1875 17.046875 -48.28125 C 17.046875 -46.375 16.359375 -44.726562 14.984375 -43.34375 C 13.609375 -41.96875 11.960938 -41.28125 10.046875 -41.28125 C 8.140625 -41.28125 6.5 -41.96875 5.125 -43.34375 C 3.75 -44.726562 3.0625 -46.375 3.0625 -48.28125 C 3.0625 -50.1875 3.75 -51.828125 5.125 -53.203125 Z M 4 -34.15625 L 4 0 L 15.78125 0 L 15.78125 -34.15625 Z M 4 -34.15625 "/></g></g></g><g fill="#ffffff" fill-opacity="1"><g transform="translate(252.002289, 217.077471)"><g><path d="M 39.15625 -29.921875 C 42.351562 -26.441406 43.953125 -22.171875 43.953125 -17.109375 C 43.953125 -12.046875 42.351562 -7.757812 39.15625 -4.25 C 35.957031 -0.75 31.894531 1 26.96875 1 C 22.4375 1 18.707031 -0.421875 15.78125 -3.265625 L 15.78125 17.3125 L 4 17.3125 L 4 -34.15625 L 15.65625 -34.15625 L 15.65625 -30.296875 L 15.78125 -30.296875 C 18.707031 -33.535156 22.4375 -35.15625 26.96875 -35.15625 C 31.894531 -35.15625 35.957031 -33.410156 39.15625 -29.921875 Z M 29.140625 -11.3125 C 30.671875 -12.820312 31.4375 -14.753906 31.4375 -17.109375 C 31.4375 -19.460938 30.703125 -21.382812 29.234375 -22.875 C 27.765625 -24.363281 25.832031 -25.109375 23.4375 -25.109375 C 21.132812 -25.109375 19.238281 -24.351562 17.75 -22.84375 C 16.257812 -21.332031 15.515625 -19.421875 15.515625 -17.109375 C 15.515625 -14.753906 16.28125 -12.820312 17.8125 -11.3125 C 19.34375 -9.8125 21.21875 -9.0625 23.4375 -9.0625 C 25.707031 -9.0625 27.609375 -9.8125 29.140625 -11.3125 Z M 29.140625 -11.3125 "/></g></g></g><g fill="#ffffff" fill-opacity="1"><g transform="translate(292.088029, 217.077471)"><g><path d="M 18.84375 -35.15625 C 20.800781 -35.15625 22.734375 -34.929688 24.640625 -34.484375 C 26.546875 -34.046875 27.96875 -33.601562 28.90625 -33.15625 L 30.296875 -32.5 L 26.4375 -24.765625 C 23.769531 -26.191406 21.238281 -26.90625 18.84375 -26.90625 C 17.507812 -26.90625 16.566406 -26.757812 16.015625 -26.46875 C 15.460938 -26.175781 15.1875 -25.632812 15.1875 -24.84375 C 15.1875 -24.664062 15.207031 -24.488281 15.25 -24.3125 C 15.289062 -24.132812 15.378906 -23.96875 15.515625 -23.8125 C 15.648438 -23.65625 15.769531 -23.519531 15.875 -23.40625 C 15.988281 -23.289062 16.175781 -23.164062 16.4375 -23.03125 C 16.707031 -22.90625 16.921875 -22.804688 17.078125 -22.734375 C 17.234375 -22.671875 17.488281 -22.570312 17.84375 -22.4375 C 18.195312 -22.3125 18.460938 -22.210938 18.640625 -22.140625 C 18.816406 -22.078125 19.113281 -21.976562 19.53125 -21.84375 C 19.957031 -21.707031 20.285156 -21.617188 20.515625 -21.578125 C 21.890625 -21.179688 23.085938 -20.738281 24.109375 -20.25 C 25.128906 -19.757812 26.203125 -19.09375 27.328125 -18.25 C 28.460938 -17.40625 29.34375 -16.335938 29.96875 -15.046875 C 30.59375 -13.765625 30.90625 -12.300781 30.90625 -10.65625 C 30.90625 -2.882812 25.507812 1 14.71875 1 C 12.269531 1 9.945312 0.625 7.75 -0.125 C 5.5625 -0.882812 3.976562 -1.640625 3 -2.390625 L 1.53125 -3.59375 L 6.328125 -11.65625 C 6.679688 -11.34375 7.144531 -10.972656 7.71875 -10.546875 C 8.300781 -10.128906 9.347656 -9.550781 10.859375 -8.8125 C 12.367188 -8.082031 13.675781 -7.71875 14.78125 -7.71875 C 17.226562 -7.71875 18.453125 -8.539062 18.453125 -10.1875 C 18.453125 -10.945312 18.140625 -11.535156 17.515625 -11.953125 C 16.890625 -12.378906 15.832031 -12.859375 14.34375 -13.390625 C 12.863281 -13.921875 11.703125 -14.40625 10.859375 -14.84375 C 8.722656 -15.957031 7.03125 -17.210938 5.78125 -18.609375 C 4.539062 -20.003906 3.921875 -21.859375 3.921875 -24.171875 C 3.921875 -27.640625 5.265625 -30.335938 7.953125 -32.265625 C 10.640625 -34.191406 14.269531 -35.15625 18.84375 -35.15625 Z M 18.84375 -35.15625 "/></g></g></g></svg>