<svg xmlns="http://www.w3.org/2000/svg" xmlns:xlink="http://www.w3.org/1999/xlink" width="1920" zoomAndPan="magnify" viewBox="0 0 1440 749.999995" height="1000" preserveAspectRatio="xMidYMid meet" version="1.0"><defs><g/><clipPath id="be363dd153"><path d="M 555.679688 62.777344 L 933 62.777344 L 933 577 L 555.679688 577 Z M 555.679688 62.777344 " clip-rule="nonzero"/></clipPath></defs><g clip-path="url(#be363dd153)"><path fill="#ffffff" d="M 932.539062 180.644531 C 925.535156 169.214844 897.199219 151.070312 874.910156 143.59375 C 852.644531 136.125 829.914062 133.96875 806.492188 137.304688 C 830.046875 122.132812 855.609375 112.429688 885.050781 106.378906 C 861.785156 98.144531 840.0625 95.285156 817.648438 99.261719 C 794.921875 103.300781 775.589844 113.949219 758.375 131.882812 C 760.367188 103.539062 749.253906 82.207031 730.460938 62.78125 C 730.359375 63.015625 730.269531 63.261719 730.175781 63.5 C 730.027344 63.285156 729.886719 63.066406 729.738281 62.855469 C 715.273438 85.683594 708.710938 108.824219 716.402344 136.179688 C 695.910156 122.101562 674.824219 115.585938 651.753906 116.238281 C 628.996094 116.878906 608.300781 124.078125 587.183594 136.855469 C 617.242188 136.816406 644.242188 141.140625 670.378906 151.230469 C 646.765625 152.707031 624.941406 159.425781 604.652344 171.246094 C 584.339844 183.078125 560.265625 206.585938 555.722656 219.195312 C 584.753906 203.839844 619.855469 195.621094 644.265625 192.222656 C 649.679688 191.457031 654.558594 190.941406 658.738281 190.628906 C 645.359375 198.289062 633.644531 206.886719 623.847656 216.640625 C 603.074219 237.285156 590.925781 263.101562 589.898438 296.050781 C 613.890625 271.675781 642.714844 255.199219 672.773438 239.988281 C 657.621094 271.144531 654.292969 303.390625 674.34375 338.019531 C 679.589844 304.226562 692.691406 273.730469 711.585938 244.3125 C 711.449219 253.21875 712.941406 269.351562 713.804688 269.796875 C 721.804688 259.410156 729.808594 249.035156 737.996094 238.421875 C 739.125 236.953125 740.28125 235.519531 741.46875 234.101562 C 749.472656 347.652344 741.808594 461.414062 718.664062 572.394531 L 717.730469 576.882812 L 770.554688 576.882812 L 770.808594 573.429688 C 779.402344 458.101562 772.199219 342.472656 749.410156 229.632812 C 752.339844 231.765625 755.179688 234.015625 757.929688 236.378906 C 768.101562 245.117188 778.039062 253.65625 787.976562 262.207031 C 788.730469 261.597656 786.925781 245.503906 784.988281 236.808594 C 784.996094 236.824219 785.003906 236.824219 785.011719 236.832031 C 809.464844 261.804688 828.460938 289.015625 840.433594 321.023438 C 853.054688 283.054688 843.269531 252.160156 822.121094 224.714844 C 854.640625 233.519531 886.199219 243.816406 914.632812 262.828125 C 906.953125 230.769531 889.839844 207.953125 865.3125 191.945312 C 853.742188 184.371094 840.523438 178.328125 825.871094 173.53125 C 830.027344 172.988281 834.910156 172.503906 840.363281 172.160156 C 864.957031 170.542969 900.996094 171.484375 932.539062 180.644531 " fill-opacity="1" fill-rule="nonzero"/></g><g fill="#ffffff" fill-opacity="1"><g transform="translate(80.432814, 577.376482)"><g><path d="M 119.734375 -276.296875 C 134.421875 -276.296875 148.78125 -274.15625 162.8125 -269.875 C 176.851562 -265.601562 187.269531 -261.382812 194.0625 -257.21875 L 203.9375 -250.640625 L 178.9375 -201.296875 C 176.957031 -202.617188 174.210938 -204.316406 170.703125 -206.390625 C 167.203125 -208.472656 160.625 -211.269531 150.96875 -214.78125 C 141.320312 -218.289062 132.332031 -220.046875 124 -220.046875 C 113.695312 -220.046875 105.75 -217.851562 100.15625 -213.46875 C 94.5625 -209.082031 91.765625 -203.160156 91.765625 -195.703125 C 91.765625 -191.972656 93.078125 -188.519531 95.703125 -185.34375 C 98.335938 -182.164062 102.832031 -178.765625 109.1875 -175.140625 C 115.550781 -171.523438 121.144531 -168.617188 125.96875 -166.421875 C 130.800781 -164.234375 138.257812 -160.945312 148.34375 -156.5625 C 165.882812 -149.113281 180.847656 -138.972656 193.234375 -126.140625 C 205.628906 -113.316406 211.828125 -98.789062 211.828125 -82.5625 C 211.828125 -66.988281 209.03125 -53.390625 203.4375 -41.765625 C 197.84375 -30.148438 190.164062 -21.050781 180.40625 -14.46875 C 170.65625 -7.894531 159.859375 -3.019531 148.015625 0.15625 C 136.171875 3.34375 123.34375 4.9375 109.53125 4.9375 C 97.6875 4.9375 86.0625 3.726562 74.65625 1.3125 C 63.257812 -1.09375 53.722656 -4.101562 46.046875 -7.71875 C 38.367188 -11.34375 31.457031 -14.910156 25.3125 -18.421875 C 19.175781 -21.929688 14.6875 -24.890625 11.84375 -27.296875 L 7.5625 -30.921875 L 38.484375 -82.890625 C 41.117188 -80.691406 44.738281 -77.894531 49.34375 -74.5 C 53.945312 -71.101562 62.113281 -66.550781 73.84375 -60.84375 C 85.570312 -55.144531 95.929688 -52.296875 104.921875 -52.296875 C 131.015625 -52.296875 144.0625 -61.175781 144.0625 -78.9375 C 144.0625 -82.664062 143.128906 -86.117188 141.265625 -89.296875 C 139.398438 -92.484375 136.109375 -95.664062 131.390625 -98.84375 C 126.679688 -102.019531 122.519531 -104.539062 118.90625 -106.40625 C 115.289062 -108.269531 109.367188 -111.117188 101.140625 -114.953125 C 92.921875 -118.796875 86.835938 -121.703125 82.890625 -123.671875 C 66.441406 -131.785156 53.722656 -141.925781 44.734375 -154.09375 C 35.742188 -166.269531 31.25 -179.375 31.25 -193.40625 C 31.25 -217.75 40.238281 -237.648438 58.21875 -253.109375 C 76.195312 -268.566406 96.703125 -276.296875 119.734375 -276.296875 Z M 119.734375 -276.296875 "/></g></g></g><g fill="#ffffff" fill-opacity="1"><g transform="translate(274.794354, 577.376482)"><g><path d="M 31.25 -20.875 C 15.457031 -38.09375 7.5625 -59.203125 7.5625 -84.203125 C 7.5625 -109.203125 15.457031 -130.363281 31.25 -147.6875 C 47.039062 -165.007812 67.101562 -173.671875 91.4375 -173.671875 C 113.800781 -173.671875 132.222656 -166.65625 146.703125 -152.625 L 146.703125 -168.734375 L 204.921875 -168.734375 L 204.921875 0 L 147.359375 0 L 147.359375 -19.078125 L 146.703125 -19.078125 C 132.222656 -3.066406 113.800781 4.9375 91.4375 4.9375 C 67.101562 4.9375 47.039062 -3.664062 31.25 -20.875 Z M 80.75 -112.8125 C 73.1875 -105.363281 69.40625 -95.828125 69.40625 -84.203125 C 69.40625 -72.578125 73.019531 -63.09375 80.25 -55.75 C 87.488281 -48.40625 97.03125 -44.734375 108.875 -44.734375 C 120.28125 -44.734375 129.65625 -48.457031 137 -55.90625 C 144.34375 -63.363281 148.015625 -72.796875 148.015625 -84.203125 C 148.015625 -95.828125 144.226562 -105.363281 136.65625 -112.8125 C 129.09375 -120.269531 119.832031 -124 108.875 -124 C 97.6875 -124 88.3125 -120.269531 80.75 -112.8125 Z M 80.75 -112.8125 "/></g></g></g><g fill="#ffffff" fill-opacity="1"><g transform="translate(472.773539, 577.376482)"><g><path d="M 19.734375 0 L 19.734375 -168.734375 L 77.953125 -168.734375 L 77.953125 -150.96875 L 78.609375 -150.96875 C 93.742188 -166.101562 109.863281 -173.671875 126.96875 -173.671875 C 135.300781 -173.671875 143.578125 -172.570312 151.796875 -170.375 C 160.015625 -168.1875 167.90625 -164.789062 175.46875 -160.1875 C 183.039062 -155.582031 189.179688 -149.054688 193.890625 -140.609375 C 198.609375 -132.171875 200.96875 -122.359375 200.96875 -111.171875 L 200.96875 0 L 142.75 0 L 142.75 -95.390625 C 142.75 -104.160156 139.953125 -111.832031 134.359375 -118.40625 C 128.773438 -124.988281 121.484375 -128.28125 112.484375 -128.28125 C 103.710938 -128.28125 95.765625 -124.878906 88.640625 -118.078125 C 81.515625 -111.285156 77.953125 -103.722656 77.953125 -95.390625 L 77.953125 0 Z M 19.734375 0 "/></g></g></g><g fill="#ffffff" fill-opacity="1"><g transform="translate(663.57071, 577.376482)"><g/></g></g><g fill="#ffffff" fill-opacity="1"><g transform="translate(726.709514, 577.376482)"><g/></g></g><g fill="#ffffff" fill-opacity="1"><g transform="translate(789.871605, 577.376482)"><g><path d="M 19.734375 0 L 19.734375 -168.734375 L 77.953125 -168.734375 L 77.953125 -144.390625 L 78.609375 -144.390625 C 79.046875 -145.273438 79.757812 -146.375 80.75 -147.6875 C 81.738281 -149 83.875 -151.300781 87.15625 -154.59375 C 90.445312 -157.882812 93.957031 -160.84375 97.6875 -163.46875 C 101.414062 -166.101562 106.238281 -168.460938 112.15625 -170.546875 C 118.082031 -172.628906 124.113281 -173.671875 130.25 -173.671875 C 136.613281 -173.671875 142.863281 -172.789062 149 -171.03125 C 155.144531 -169.28125 159.640625 -167.53125 162.484375 -165.78125 L 167.09375 -163.140625 L 142.75 -113.8125 C 135.507812 -119.945312 125.421875 -123.015625 112.484375 -123.015625 C 105.472656 -123.015625 99.441406 -121.476562 94.390625 -118.40625 C 89.347656 -115.34375 85.785156 -111.617188 83.703125 -107.234375 C 81.617188 -102.847656 80.140625 -99.117188 79.265625 -96.046875 C 78.390625 -92.972656 77.953125 -90.5625 77.953125 -88.8125 L 77.953125 0 Z M 19.734375 0 "/></g></g></g><g fill="#ffffff" fill-opacity="1"><g transform="translate(927.008166, 577.376482)"><g><path d="M 25.328125 -262.796875 C 32.128906 -269.597656 40.242188 -273 49.671875 -273 C 59.097656 -273 67.207031 -269.597656 74 -262.796875 C 80.800781 -256.003906 84.203125 -247.894531 84.203125 -238.46875 C 84.203125 -229.039062 80.800781 -220.925781 74 -214.125 C 67.207031 -207.332031 59.097656 -203.9375 49.671875 -203.9375 C 40.242188 -203.9375 32.128906 -207.332031 25.328125 -214.125 C 18.523438 -220.925781 15.125 -229.039062 15.125 -238.46875 C 15.125 -247.894531 18.523438 -256.003906 25.328125 -262.796875 Z M 19.734375 -168.734375 L 19.734375 0 L 77.953125 0 L 77.953125 -168.734375 Z M 19.734375 -168.734375 "/></g></g></g><g fill="#ffffff" fill-opacity="1"><g transform="translate(999.684464, 577.376482)"><g><path d="M 193.40625 -147.84375 C 209.195312 -130.632812 217.09375 -109.53125 217.09375 -84.53125 C 217.09375 -59.53125 209.195312 -38.367188 193.40625 -21.046875 C 177.613281 -3.722656 157.550781 4.9375 133.21875 4.9375 C 110.84375 4.9375 92.421875 -2.078125 77.953125 -16.109375 L 77.953125 85.515625 L 19.734375 85.515625 L 19.734375 -168.734375 L 77.296875 -168.734375 L 77.296875 -149.65625 L 77.953125 -149.65625 C 92.421875 -165.664062 110.84375 -173.671875 133.21875 -173.671875 C 157.550781 -173.671875 177.613281 -165.0625 193.40625 -147.84375 Z M 143.90625 -55.90625 C 151.46875 -63.363281 155.25 -72.90625 155.25 -84.53125 C 155.25 -96.15625 151.628906 -105.640625 144.390625 -112.984375 C 137.160156 -120.328125 127.625 -124 115.78125 -124 C 104.375 -124 95 -120.269531 87.65625 -112.8125 C 80.3125 -105.363281 76.640625 -95.9375 76.640625 -84.53125 C 76.640625 -72.90625 80.421875 -63.363281 87.984375 -55.90625 C 95.546875 -48.457031 104.8125 -44.734375 115.78125 -44.734375 C 126.96875 -44.734375 136.34375 -48.457031 143.90625 -55.90625 Z M 143.90625 -55.90625 "/></g></g></g><g fill="#ffffff" fill-opacity="1"><g transform="translate(1197.663649, 577.376482)"><g><path d="M 93.078125 -173.671875 C 102.734375 -173.671875 112.273438 -172.570312 121.703125 -170.375 C 131.128906 -168.1875 138.144531 -165.992188 142.75 -163.796875 L 149.65625 -160.515625 L 130.578125 -122.359375 C 117.421875 -129.378906 104.921875 -132.890625 93.078125 -132.890625 C 86.503906 -132.890625 81.847656 -132.175781 79.109375 -130.75 C 76.367188 -129.320312 75 -126.632812 75 -122.6875 C 75 -121.8125 75.109375 -120.929688 75.328125 -120.046875 C 75.546875 -119.171875 75.984375 -118.347656 76.640625 -117.578125 C 77.296875 -116.816406 77.894531 -116.160156 78.4375 -115.609375 C 78.988281 -115.066406 79.921875 -114.460938 81.234375 -113.796875 C 82.554688 -113.140625 83.597656 -112.644531 84.359375 -112.3125 C 85.128906 -111.988281 86.390625 -111.5 88.140625 -110.84375 C 89.898438 -110.1875 91.21875 -109.691406 92.09375 -109.359375 C 92.96875 -109.035156 94.445312 -108.546875 96.53125 -107.890625 C 98.613281 -107.234375 100.207031 -106.796875 101.3125 -106.578125 C 108.101562 -104.597656 114.019531 -102.398438 119.0625 -99.984375 C 124.113281 -97.578125 129.429688 -94.289062 135.015625 -90.125 C 140.609375 -85.957031 144.941406 -80.691406 148.015625 -74.328125 C 151.085938 -67.972656 152.625 -60.738281 152.625 -52.625 C 152.625 -14.25 125.976562 4.9375 72.6875 4.9375 C 60.625 4.9375 49.164062 3.070312 38.3125 -0.65625 C 27.457031 -4.382812 19.617188 -8.113281 14.796875 -11.84375 L 7.5625 -17.765625 L 31.25 -57.5625 C 33 -56.03125 35.300781 -54.222656 38.15625 -52.140625 C 41.007812 -50.054688 46.160156 -47.203125 53.609375 -43.578125 C 61.066406 -39.960938 67.535156 -38.15625 73.015625 -38.15625 C 85.078125 -38.15625 91.109375 -42.210938 91.109375 -50.328125 C 91.109375 -54.054688 89.570312 -56.960938 86.5 -59.046875 C 83.4375 -61.128906 78.226562 -63.484375 70.875 -66.109375 C 63.53125 -68.742188 57.773438 -71.15625 53.609375 -73.34375 C 43.085938 -78.832031 34.753906 -85.03125 28.609375 -91.9375 C 22.472656 -98.84375 19.40625 -108 19.40625 -119.40625 C 19.40625 -136.5 26.035156 -149.816406 39.296875 -159.359375 C 52.566406 -168.898438 70.492188 -173.671875 93.078125 -173.671875 Z M 93.078125 -173.671875 "/></g></g></g></svg>