<svg xmlns="http://www.w3.org/2000/svg" xmlns:xlink="http://www.w3.org/1999/xlink" width="1920" zoomAndPan="magnify" viewBox="0 0 1440 749.999995" height="1000" preserveAspectRatio="xMidYMid meet" version="1.0"><defs><g/><clipPath id="f1d340e13e"><path d="M 555.679688 62.777344 L 932.929688 62.777344 L 932.929688 577 L 555.679688 577 Z M 555.679688 62.777344 " clip-rule="nonzero"/></clipPath></defs><g clip-path="url(#f1d340e13e)"><path fill="#146c94" d="M 932.566406 180.648438 C 925.5625 169.21875 897.226562 151.074219 874.9375 143.597656 C 852.675781 136.128906 829.941406 133.972656 806.519531 137.308594 C 830.074219 122.132812 855.636719 112.429688 885.082031 106.378906 C 861.8125 98.144531 840.089844 95.289062 817.671875 99.265625 C 794.945312 103.300781 775.613281 113.949219 758.398438 131.886719 C 760.390625 103.542969 749.277344 82.207031 730.484375 62.78125 C 730.382812 63.015625 730.292969 63.261719 730.199219 63.5 C 730.050781 63.285156 729.910156 63.066406 729.761719 62.855469 C 715.296875 85.683594 708.734375 108.828125 716.425781 136.183594 C 695.929688 122.105469 674.84375 115.589844 651.773438 116.238281 C 629.011719 116.882812 608.320312 124.078125 587.199219 136.859375 C 617.261719 136.820312 644.261719 141.144531 670.398438 151.234375 C 646.78125 152.710938 624.957031 159.429688 604.667969 171.25 C 584.355469 183.082031 560.28125 206.589844 555.738281 219.203125 C 584.769531 203.84375 619.871094 195.625 644.285156 192.226562 C 649.699219 191.460938 654.578125 190.945312 658.757812 190.636719 C 645.378906 198.296875 633.664062 206.894531 623.867188 216.648438 C 603.089844 237.292969 590.945312 263.109375 589.917969 296.0625 C 613.90625 271.683594 642.734375 255.207031 672.792969 239.996094 C 657.640625 271.152344 654.3125 303.402344 674.363281 338.03125 C 679.609375 304.238281 692.710938 273.738281 711.609375 244.320312 C 711.472656 253.226562 712.964844 269.359375 713.828125 269.804688 C 721.828125 259.417969 729.828125 249.042969 738.019531 238.425781 C 739.148438 236.960938 740.304688 235.523438 741.492188 234.109375 C 749.496094 347.664062 741.832031 461.429688 718.6875 572.414062 L 717.75 576.90625 L 770.578125 576.90625 L 770.832031 573.449219 C 779.425781 458.117188 772.222656 342.484375 749.433594 229.640625 C 752.363281 231.773438 755.203125 234.023438 757.953125 236.386719 C 768.125 245.125 778.0625 253.664062 788.003906 262.214844 C 788.757812 261.605469 786.953125 245.511719 785.011719 236.816406 C 785.019531 236.832031 785.03125 236.832031 785.035156 236.835938 C 809.492188 261.8125 828.484375 289.023438 840.460938 321.035156 C 853.082031 283.0625 843.296875 252.167969 822.148438 224.722656 C 854.667969 233.527344 886.230469 243.824219 914.664062 262.835938 C 906.980469 230.777344 889.867188 207.960938 865.34375 191.949219 C 853.769531 184.375 840.550781 178.332031 825.898438 173.535156 C 830.050781 172.992188 834.9375 172.507812 840.386719 172.164062 C 864.984375 170.546875 901.027344 171.488281 932.566406 180.648438 " fill-opacity="1" fill-rule="nonzero"/></g><g fill="#146c94" fill-opacity="1"><g transform="translate(80.432814, 577.376453)"><g><path d="M 119.734375 -276.296875 C 134.421875 -276.296875 148.78125 -274.15625 162.8125 -269.875 C 176.851562 -265.601562 187.269531 -261.382812 194.0625 -257.21875 L 203.9375 -250.640625 L 178.9375 -201.296875 C 176.957031 -202.617188 174.210938 -204.316406 170.703125 -206.390625 C 167.203125 -208.472656 160.625 -211.269531 150.96875 -214.78125 C 141.320312 -218.289062 132.332031 -220.046875 124 -220.046875 C 113.695312 -220.046875 105.75 -217.851562 100.15625 -213.46875 C 94.5625 -209.082031 91.765625 -203.160156 91.765625 -195.703125 C 91.765625 -191.972656 93.078125 -188.519531 95.703125 -185.34375 C 98.335938 -182.164062 102.832031 -178.765625 109.1875 -175.140625 C 115.550781 -171.523438 121.144531 -168.617188 125.96875 -166.421875 C 130.800781 -164.234375 138.257812 -160.945312 148.34375 -156.5625 C 165.882812 -149.113281 180.847656 -138.972656 193.234375 -126.140625 C 205.628906 -113.316406 211.828125 -98.789062 211.828125 -82.5625 C 211.828125 -66.988281 209.03125 -53.390625 203.4375 -41.765625 C 197.84375 -30.148438 190.164062 -21.050781 180.40625 -14.46875 C 170.65625 -7.894531 159.859375 -3.019531 148.015625 0.15625 C 136.171875 3.34375 123.34375 4.9375 109.53125 4.9375 C 97.6875 4.9375 86.0625 3.726562 74.65625 1.3125 C 63.257812 -1.09375 53.722656 -4.101562 46.046875 -7.71875 C 38.367188 -11.34375 31.457031 -14.910156 25.3125 -18.421875 C 19.175781 -21.929688 14.6875 -24.890625 11.84375 -27.296875 L 7.5625 -30.921875 L 38.484375 -82.890625 C 41.117188 -80.691406 44.738281 -77.894531 49.34375 -74.5 C 53.945312 -71.101562 62.113281 -66.550781 73.84375 -60.84375 C 85.570312 -55.144531 95.929688 -52.296875 104.921875 -52.296875 C 131.015625 -52.296875 144.0625 -61.175781 144.0625 -78.9375 C 144.0625 -82.664062 143.128906 -86.117188 141.265625 -89.296875 C 139.398438 -92.484375 136.109375 -95.664062 131.390625 -98.84375 C 126.679688 -102.019531 122.519531 -104.539062 118.90625 -106.40625 C 115.289062 -108.269531 109.367188 -111.117188 101.140625 -114.953125 C 92.921875 -118.796875 86.835938 -121.703125 82.890625 -123.671875 C 66.441406 -131.785156 53.722656 -141.925781 44.734375 -154.09375 C 35.742188 -166.269531 31.25 -179.375 31.25 -193.40625 C 31.25 -217.75 40.238281 -237.648438 58.21875 -253.109375 C 76.195312 -268.566406 96.703125 -276.296875 119.734375 -276.296875 Z M 119.734375 -276.296875 "/></g></g></g><g fill="#146c94" fill-opacity="1"><g transform="translate(274.794354, 577.376453)"><g><path d="M 31.25 -20.875 C 15.457031 -38.09375 7.5625 -59.203125 7.5625 -84.203125 C 7.5625 -109.203125 15.457031 -130.363281 31.25 -147.6875 C 47.039062 -165.007812 67.101562 -173.671875 91.4375 -173.671875 C 113.800781 -173.671875 132.222656 -166.65625 146.703125 -152.625 L 146.703125 -168.734375 L 204.921875 -168.734375 L 204.921875 0 L 147.359375 0 L 147.359375 -19.078125 L 146.703125 -19.078125 C 132.222656 -3.066406 113.800781 4.9375 91.4375 4.9375 C 67.101562 4.9375 47.039062 -3.664062 31.25 -20.875 Z M 80.75 -112.8125 C 73.1875 -105.363281 69.40625 -95.828125 69.40625 -84.203125 C 69.40625 -72.578125 73.019531 -63.09375 80.25 -55.75 C 87.488281 -48.40625 97.03125 -44.734375 108.875 -44.734375 C 120.28125 -44.734375 129.65625 -48.457031 137 -55.90625 C 144.34375 -63.363281 148.015625 -72.796875 148.015625 -84.203125 C 148.015625 -95.828125 144.226562 -105.363281 136.65625 -112.8125 C 129.09375 -120.269531 119.832031 -124 108.875 -124 C 97.6875 -124 88.3125 -120.269531 80.75 -112.8125 Z M 80.75 -112.8125 "/></g></g></g><g fill="#146c94" fill-opacity="1"><g transform="translate(472.773539, 577.376453)"><g><path d="M 19.734375 0 L 19.734375 -168.734375 L 77.953125 -168.734375 L 77.953125 -150.96875 L 78.609375 -150.96875 C 93.742188 -166.101562 109.863281 -173.671875 126.96875 -173.671875 C 135.300781 -173.671875 143.578125 -172.570312 151.796875 -170.375 C 160.015625 -168.1875 167.90625 -164.789062 175.46875 -160.1875 C 183.039062 -155.582031 189.179688 -149.054688 193.890625 -140.609375 C 198.609375 -132.171875 200.96875 -122.359375 200.96875 -111.171875 L 200.96875 0 L 142.75 0 L 142.75 -95.390625 C 142.75 -104.160156 139.953125 -111.832031 134.359375 -118.40625 C 128.773438 -124.988281 121.484375 -128.28125 112.484375 -128.28125 C 103.710938 -128.28125 95.765625 -124.878906 88.640625 -118.078125 C 81.515625 -111.285156 77.953125 -103.722656 77.953125 -95.390625 L 77.953125 0 Z M 19.734375 0 "/></g></g></g><g fill="#146c94" fill-opacity="1"><g transform="translate(663.57071, 577.376453)"><g/></g></g><g fill="#146c94" fill-opacity="1"><g transform="translate(726.709514, 577.376453)"><g/></g></g><g fill="#146c94" fill-opacity="1"><g transform="translate(789.871605, 577.376453)"><g><path d="M 19.734375 0 L 19.734375 -168.734375 L 77.953125 -168.734375 L 77.953125 -144.390625 L 78.609375 -144.390625 C 79.046875 -145.273438 79.757812 -146.375 80.75 -147.6875 C 81.738281 -149 83.875 -151.300781 87.15625 -154.59375 C 90.445312 -157.882812 93.957031 -160.84375 97.6875 -163.46875 C 101.414062 -166.101562 106.238281 -168.460938 112.15625 -170.546875 C 118.082031 -172.628906 124.113281 -173.671875 130.25 -173.671875 C 136.613281 -173.671875 142.863281 -172.789062 149 -171.03125 C 155.144531 -169.28125 159.640625 -167.53125 162.484375 -165.78125 L 167.09375 -163.140625 L 142.75 -113.8125 C 135.507812 -119.945312 125.421875 -123.015625 112.484375 -123.015625 C 105.472656 -123.015625 99.441406 -121.476562 94.390625 -118.40625 C 89.347656 -115.34375 85.785156 -111.617188 83.703125 -107.234375 C 81.617188 -102.847656 80.140625 -99.117188 79.265625 -96.046875 C 78.390625 -92.972656 77.953125 -90.5625 77.953125 -88.8125 L 77.953125 0 Z M 19.734375 0 "/></g></g></g><g fill="#146c94" fill-opacity="1"><g transform="translate(927.008166, 577.376453)"><g><path d="M 25.328125 -262.796875 C 32.128906 -269.597656 40.242188 -273 49.671875 -273 C 59.097656 -273 67.207031 -269.597656 74 -262.796875 C 80.800781 -256.003906 84.203125 -247.894531 84.203125 -238.46875 C 84.203125 -229.039062 80.800781 -220.925781 74 -214.125 C 67.207031 -207.332031 59.097656 -203.9375 49.671875 -203.9375 C 40.242188 -203.9375 32.128906 -207.332031 25.328125 -214.125 C 18.523438 -220.925781 15.125 -229.039062 15.125 -238.46875 C 15.125 -247.894531 18.523438 -256.003906 25.328125 -262.796875 Z M 19.734375 -168.734375 L 19.734375 0 L 77.953125 0 L 77.953125 -168.734375 Z M 19.734375 -168.734375 "/></g></g></g><g fill="#146c94" fill-opacity="1"><g transform="translate(999.684464, 577.376453)"><g><path d="M 193.40625 -147.84375 C 209.195312 -130.632812 217.09375 -109.53125 217.09375 -84.53125 C 217.09375 -59.53125 209.195312 -38.367188 193.40625 -21.046875 C 177.613281 -3.722656 157.550781 4.9375 133.21875 4.9375 C 110.84375 4.9375 92.421875 -2.078125 77.953125 -16.109375 L 77.953125 85.515625 L 19.734375 85.515625 L 19.734375 -168.734375 L 77.296875 -168.734375 L 77.296875 -149.65625 L 77.953125 -149.65625 C 92.421875 -165.664062 110.84375 -173.671875 133.21875 -173.671875 C 157.550781 -173.671875 177.613281 -165.0625 193.40625 -147.84375 Z M 143.90625 -55.90625 C 151.46875 -63.363281 155.25 -72.90625 155.25 -84.53125 C 155.25 -96.15625 151.628906 -105.640625 144.390625 -112.984375 C 137.160156 -120.328125 127.625 -124 115.78125 -124 C 104.375 -124 95 -120.269531 87.65625 -112.8125 C 80.3125 -105.363281 76.640625 -95.9375 76.640625 -84.53125 C 76.640625 -72.90625 80.421875 -63.363281 87.984375 -55.90625 C 95.546875 -48.457031 104.8125 -44.734375 115.78125 -44.734375 C 126.96875 -44.734375 136.34375 -48.457031 143.90625 -55.90625 Z M 143.90625 -55.90625 "/></g></g></g><g fill="#146c94" fill-opacity="1"><g transform="translate(1197.663649, 577.376453)"><g><path d="M 93.078125 -173.671875 C 102.734375 -173.671875 112.273438 -172.570312 121.703125 -170.375 C 131.128906 -168.1875 138.144531 -165.992188 142.75 -163.796875 L 149.65625 -160.515625 L 130.578125 -122.359375 C 117.421875 -129.378906 104.921875 -132.890625 93.078125 -132.890625 C 86.503906 -132.890625 81.847656 -132.175781 79.109375 -130.75 C 76.367188 -129.320312 75 -126.632812 75 -122.6875 C 75 -121.8125 75.109375 -120.929688 75.328125 -120.046875 C 75.546875 -119.171875 75.984375 -118.347656 76.640625 -117.578125 C 77.296875 -116.816406 77.894531 -116.160156 78.4375 -115.609375 C 78.988281 -115.066406 79.921875 -114.460938 81.234375 -113.796875 C 82.554688 -113.140625 83.597656 -112.644531 84.359375 -112.3125 C 85.128906 -111.988281 86.390625 -111.5 88.140625 -110.84375 C 89.898438 -110.1875 91.21875 -109.691406 92.09375 -109.359375 C 92.96875 -109.035156 94.445312 -108.546875 96.53125 -107.890625 C 98.613281 -107.234375 100.207031 -106.796875 101.3125 -106.578125 C 108.101562 -104.597656 114.019531 -102.398438 119.0625 -99.984375 C 124.113281 -97.578125 129.429688 -94.289062 135.015625 -90.125 C 140.609375 -85.957031 144.941406 -80.691406 148.015625 -74.328125 C 151.085938 -67.972656 152.625 -60.738281 152.625 -52.625 C 152.625 -14.25 125.976562 4.9375 72.6875 4.9375 C 60.625 4.9375 49.164062 3.070312 38.3125 -0.65625 C 27.457031 -4.382812 19.617188 -8.113281 14.796875 -11.84375 L 7.5625 -17.765625 L 31.25 -57.5625 C 33 -56.03125 35.300781 -54.222656 38.15625 -52.140625 C 41.007812 -50.054688 46.160156 -47.203125 53.609375 -43.578125 C 61.066406 -39.960938 67.535156 -38.15625 73.015625 -38.15625 C 85.078125 -38.15625 91.109375 -42.210938 91.109375 -50.328125 C 91.109375 -54.054688 89.570312 -56.960938 86.5 -59.046875 C 83.4375 -61.128906 78.226562 -63.484375 70.875 -66.109375 C 63.53125 -68.742188 57.773438 -71.15625 53.609375 -73.34375 C 43.085938 -78.832031 34.753906 -85.03125 28.609375 -91.9375 C 22.472656 -98.84375 19.40625 -108 19.40625 -119.40625 C 19.40625 -136.5 26.035156 -149.816406 39.296875 -159.359375 C 52.566406 -168.898438 70.492188 -173.671875 93.078125 -173.671875 Z M 93.078125 -173.671875 "/></g></g></g></svg>